<svg id="Layer_1" data-name="Layer 1" xmlns="http://www.w3.org/2000/svg" xmlns:xlink="http://www.w3.org/1999/xlink" viewBox="0 0 1102.21 588.08"><defs><style>.cls-1{opacity:0.5;}.cls-2,.cls-5,.cls-6,.cls-7,.cls-8{fill:none;}.cls-2{stroke-width:8.79px;stroke:url(#linear-gradient);}.cls-3{fill:url(#linear-gradient-2);}.cls-4{fill:url(#linear-gradient-3);}.cls-5{stroke-linejoin:round;stroke:url(#linear-gradient-4);}.cls-5,.cls-7,.cls-8{stroke-width:8.65px;}.cls-6{stroke-width:4.32px;stroke:url(#linear-gradient-5);}.cls-7{stroke:url(#linear-gradient-6);}.cls-8{stroke:url(#linear-gradient-7);}</style><linearGradient id="linear-gradient" x1="-55.57" y1="292.86" x2="-55.57" y2="156.17" gradientTransform="matrix(1, 0, 0, -1, -8.36, 867.05)" gradientUnits="userSpaceOnUse"><stop offset="0" stop-color="#4e5078"/><stop offset="0.52" stop-color="#694185"/><stop offset="1" stop-color="#a93270"/></linearGradient><linearGradient id="linear-gradient-2" x1="-55.57" y1="261.32" x2="-55.57" y2="208.74" xlink:href="#linear-gradient"/><linearGradient id="linear-gradient-3" x1="-163.57" y1="739.86" x2="-163.57" y2="575.86" xlink:href="#linear-gradient"/><linearGradient id="linear-gradient-4" x1="777.88" y1="543.86" x2="777.88" y2="383.86" xlink:href="#linear-gradient"/><linearGradient id="linear-gradient-5" x1="806.33" y1="496.29" x2="806.33" y2="468.18" xlink:href="#linear-gradient"/><linearGradient id="linear-gradient-6" x1="820.11" y1="504.68" x2="810" y2="471.96" xlink:href="#linear-gradient"/><linearGradient id="linear-gradient-7" x1="835.21" y1="521.28" x2="820.07" y2="472.24" xlink:href="#linear-gradient"/></defs><g class="cls-1"><path class="cls-2" d="M-129.64,574.2H1.78c14.72,0,26.29,8.59,26.29,19.52v97.63c0,10.94-11.57,19.53-26.29,19.53H-129.64c-14.72,0-26.29-8.59-26.29-19.53V593.72C-155.93,582.79-144.36,574.2-129.64,574.2Z" transform="translate(253.93 -127.2)"/><path class="cls-3" d="M-150.78,599.65a6.59,6.59,0,0,0-8.61,3.57,6.59,6.59,0,0,0,3.57,8.61Zm36.91,27.12,3.6-5.52Zm99.88,0-3.77-5.41h0Zm41.81-14.89a6.59,6.59,0,1,0-4.76-12.29Zm-181.12-6.14-2.52,6.09h0l0,0,.15.06.61.26,2.4,1.05c2.08.93,5.07,2.31,8.68,4.09a262.64,262.64,0,0,1,26.47,15l7.2-11a273.58,273.58,0,0,0-27.84-15.76c-3.77-1.86-6.92-3.31-9.13-4.3l-2.58-1.13-.7-.3-.19-.08,0,0h0Zm35.83,26.55c5,3.25,10,6.82,15,10.4s9.94,7.14,14.63,10.31a121.72,121.72,0,0,0,13.51,8.16c4.1,2,8.62,3.74,13,3.74V651.72c-1.23,0-3.51-.57-7.12-2.36a111.79,111.79,0,0,1-12-7.27c-4.5-3.05-9.29-6.51-14.35-10.13s-10.27-7.29-15.51-10.71ZM-61.3,664.9c4.45,0,8.79-1.76,12.6-3.87a99.26,99.26,0,0,0,12.1-8.27c8.52-6.59,16.94-14,26.38-20.59l-7.54-10.81c-9.69,6.76-19.34,15.12-26.9,21a86.24,86.24,0,0,1-10.41,7.16c-3.11,1.72-5.09,2.23-6.23,2.23Zm51.08-32.73a192.65,192.65,0,0,1,25.77-14.83c3.67-1.77,6.76-3.15,8.93-4.07,1.09-.47,1.94-.82,2.51-1l.64-.26.16-.06h0s0,0-2.39-6.14l-2.38-6.15h0l-.05,0-.21.08L22,600c-.64.26-1.57.64-2.73,1.14-2.33,1-5.61,2.45-9.48,4.32a205.74,205.74,0,0,0-27.58,15.89Z" transform="translate(253.93 -127.2)"/></g><g class="cls-1"><path class="cls-4" d="M-171.93,140.86A68.41,68.41,0,0,1-103.6,209.2a68.41,68.41,0,0,1-68.33,68.33,68.41,68.41,0,0,1-68.33-68.33A68.41,68.41,0,0,1-171.93,140.86Zm0-13.66a82,82,0,0,0-82,82,82,82,0,0,0,82,82,82,82,0,0,0,82-82A82,82,0,0,0-171.93,127.2Zm8.54,116.16a8.54,8.54,0,0,1-8.54,8.54,8.54,8.54,0,0,1-8.54-8.54,8.55,8.55,0,0,1,8.54-8.54A8.54,8.54,0,0,1-163.39,243.36Zm9.52-68.32c-4.15-4.21-10.35-6.52-17.43-6.52-14.9,0-24.53,10.59-24.53,27h13.74c0-10.16,5.66-13.76,10.51-13.76,4.33,0,8.93,2.88,9.32,8.38.42,5.79-2.67,8.73-6.57,12.44-9.65,9.18-9.83,13.62-9.79,23.7h13.7c-.09-4.54.21-8.22,6.39-14.88,4.63-5,10.38-11.19,10.5-20.65.07-6.32-1.94-11.75-5.84-15.7Z" transform="translate(253.93 -127.2)"/></g><g class="cls-1"><path class="cls-5" d="M759.67,364.29c0-8.75-6.95-17.51-14.93-24.67-12.35-11.1-31.19-7.17-39,7.48a91.8,91.8,0,0,0-8.64,21.76c-7.77,33.63,7.59,53.65,33.5,77.63,25,23.17,50.38,44,83.73,34.24,5.76-1.68,12.09-5.14,17.67-8.75,10.28-6.65,14.84-19.38,10.08-30.66-4.18-9.88-10.82-19.95-20.57-19.95-19.14,0-28.71,25.12-28.71,25.12s-32-6.21-43.06-16c-14.54-12.82-19.14-47.94-19.14-47.94S759.67,384.84,759.67,364.29Z" transform="translate(253.93 -127.2)"/><path class="cls-6" d="M784.92,370.76c18.45,6.88,23.08,13.41,24.71,28.11" transform="translate(253.93 -127.2)"/><path class="cls-7" d="M788.58,355.22c32.28,11.22,35.1,27.94,32.28,45.81" transform="translate(253.93 -127.2)"/><path class="cls-8" d="M795.75,336.17c32.29,11.22,49.82,38.92,43.08,67" transform="translate(253.93 -127.2)"/></g></svg>