<svg id="Layer_1" data-name="Layer 1" xmlns="http://www.w3.org/2000/svg" xmlns:xlink="http://www.w3.org/1999/xlink" viewBox="0 0 192.79 145.47"><defs><style>.cls-1{opacity:0.5;}.cls-2{fill:none;stroke-width:8.79px;stroke:url(#linear-gradient);}.cls-3{fill:url(#linear-gradient-2);}</style><linearGradient id="linear-gradient" x1="332.87" y1="406.29" x2="332.87" y2="269.6" gradientTransform="matrix(1, 0, 0, -1, -8.36, 650.83)" gradientUnits="userSpaceOnUse"><stop offset="0" stop-color="#4d5078"/><stop offset="0.52" stop-color="#694184"/><stop offset="1" stop-color="#a9316f"/></linearGradient><linearGradient id="linear-gradient-2" x1="332.87" y1="374.74" x2="332.87" y2="322.17" xlink:href="#linear-gradient"/></defs><g class="cls-1"><path class="cls-2" d="M258.8,244.55H390.22c14.72,0,26.29,8.59,26.29,19.52v97.64c0,10.93-11.57,19.52-26.29,19.52H258.8c-14.72,0-26.29-8.59-26.29-19.52V264.07C232.51,253.14,244.08,244.55,258.8,244.55Z" transform="translate(-228.12 -240.15)"/><path class="cls-3" d="M237.66,270a6.59,6.59,0,1,0-5,12.18Zm36.91,27.12,3.6-5.52Zm99.88,0-3.77-5.41h0Zm41.81-14.88A6.59,6.59,0,1,0,411.5,270Zm-181.12-6.15-2.52,6.09h0l0,0,.15.06.61.26,2.4,1.05c2.08.93,5.07,2.32,8.67,4.09a261.57,261.57,0,0,1,26.48,15l7.2-11a273.58,273.58,0,0,0-27.84-15.76c-3.77-1.86-6.92-3.31-9.13-4.3l-2.58-1.13-.7-.3-.19-.08,0,0h0ZM271,302.64c5,3.25,10,6.82,15,10.4s9.94,7.14,14.62,10.31a121.72,121.72,0,0,0,13.51,8.16c4.11,2,8.63,3.74,13,3.74V322.07c-1.23,0-3.51-.57-7.12-2.36a110.82,110.82,0,0,1-12-7.27c-4.5-3.05-9.29-6.51-14.35-10.13S283.41,295,278.17,291.6Zm56.17,32.61c4.45,0,8.79-1.76,12.6-3.87a99.26,99.26,0,0,0,12.1-8.27c8.52-6.59,16.94-14,26.38-20.58l-7.54-10.82c-9.7,6.76-19.34,15.12-26.9,21a86.24,86.24,0,0,1-10.41,7.16c-3.11,1.72-5.1,2.23-6.23,2.23Zm51.08-32.72A191.73,191.73,0,0,1,404,287.69c3.66-1.77,6.76-3.14,8.93-4.07,1.08-.47,1.94-.82,2.51-1.05l.64-.26.16-.06h0l-2.38-6.15L411.5,270h0l-.05,0-.21.08-.74.3c-.64.26-1.57.64-2.73,1.14-2.33,1-5.61,2.45-9.48,4.32a206.84,206.84,0,0,0-27.58,15.89Z" transform="translate(-228.12 -240.15)"/></g></svg>