<svg id="Layer_1" data-name="Layer 1" xmlns="http://www.w3.org/2000/svg" xmlns:xlink="http://www.w3.org/1999/xlink" viewBox="0 0 157.54 158.61"><defs><style>.cls-1{opacity:0.5;}.cls-2,.cls-3,.cls-4,.cls-5{fill:none;}.cls-2{stroke-linejoin:round;stroke:url(#linear-gradient);}.cls-2,.cls-4,.cls-5{stroke-width:8.65px;}.cls-3{stroke-width:4.32px;stroke:url(#linear-gradient-2);}.cls-4{stroke:url(#linear-gradient-3);}.cls-5{stroke:url(#linear-gradient-4);}</style><linearGradient id="linear-gradient" x1="333.58" y1="424.25" x2="333.58" y2="264.25" gradientTransform="matrix(1, 0, 0, -1, -8.36, 650.83)" gradientUnits="userSpaceOnUse"><stop offset="0" stop-color="#4d5078"/><stop offset="0.52" stop-color="#694184"/><stop offset="1" stop-color="#a9316f"/></linearGradient><linearGradient id="linear-gradient-2" x1="362.03" y1="376.68" x2="362.03" y2="348.58" xlink:href="#linear-gradient"/><linearGradient id="linear-gradient-3" x1="375.81" y1="385.07" x2="365.7" y2="352.35" xlink:href="#linear-gradient"/><linearGradient id="linear-gradient-4" x1="390.92" y1="401.67" x2="375.77" y2="352.63" xlink:href="#linear-gradient"/></defs><g class="cls-1"><path class="cls-2" d="M315.36,267.68c0-8.75-6.94-17.51-14.92-24.67-12.35-11.1-31.19-7.17-39,7.47a91.87,91.87,0,0,0-8.64,21.77c-7.77,33.63,7.59,53.65,33.5,77.62,25,23.18,50.38,44,83.73,34.25,5.76-1.68,12.08-5.14,17.67-8.75,10.28-6.65,14.84-19.38,10.08-30.66-4.18-9.88-10.82-19.95-20.57-19.95-19.14,0-28.71,25.11-28.71,25.11s-32-6.2-43.06-16C290.89,321.07,286.29,286,286.29,286S315.37,288.23,315.36,267.68Z" transform="translate(-246.44 -232.3)"/><path class="cls-3" d="M340.62,274.15c18.45,6.88,23.08,13.41,24.71,28.11" transform="translate(-246.44 -232.3)"/><path class="cls-4" d="M344.28,258.61c32.28,11.22,35.1,27.94,32.28,45.81" transform="translate(-246.44 -232.3)"/><path class="cls-5" d="M351.45,239.56c32.28,11.21,49.82,38.92,43.08,67" transform="translate(-246.44 -232.3)"/></g></svg>