<svg id="Layer_1" data-name="Layer 1" xmlns="http://www.w3.org/2000/svg" xmlns:xlink="http://www.w3.org/1999/xlink" viewBox="0 0 164 164"><defs><style>.cls-1{opacity:0.5;}.cls-2{fill:url(#linear-gradient);}</style><linearGradient id="linear-gradient" x1="332.86" y1="419.94" x2="332.86" y2="255.94" gradientTransform="matrix(1, 0, 0, -1, -8.36, 650.83)" gradientUnits="userSpaceOnUse"><stop offset="0" stop-color="#4d5078"/><stop offset="0.52" stop-color="#694184"/><stop offset="1" stop-color="#a9316f"/></linearGradient></defs><g class="cls-1"><path class="cls-2" d="M324.5,244.56a68.33,68.33,0,1,1-68.33,68.33A68.4,68.4,0,0,1,324.5,244.56Zm0-13.67a82,82,0,1,0,82,82A82,82,0,0,0,324.5,230.89ZM333,347.06a8.54,8.54,0,1,1-8.54-8.54A8.54,8.54,0,0,1,333,347.06Zm9.52-68.32c-4.15-4.21-10.35-6.53-17.43-6.53-14.9,0-24.53,10.59-24.53,27h13.74c0-10.15,5.66-13.75,10.51-13.75,4.33,0,8.93,2.87,9.32,8.38.42,5.78-2.67,8.72-6.57,12.44-9.65,9.18-9.83,13.62-9.79,23.7h13.7c-.09-4.54.21-8.22,6.39-14.89,4.63-5,10.38-11.19,10.5-20.65.07-6.31-1.94-11.74-5.84-15.69Z" transform="translate(-242.5 -230.89)"/></g></svg>