<svg id="Layer_1" data-name="Layer 1" xmlns="http://www.w3.org/2000/svg" xmlns:xlink="http://www.w3.org/1999/xlink" viewBox="0 0 1466.06 625.2"><defs><style>.cls-1,.cls-2{fill:none;}.cls-2{clip-path:url(#clip-path);}.cls-3{fill:#1d1b27;fill-opacity:0.5;opacity:0.39;}.cls-4{clip-path:url(#clip-path-2);}.cls-5{clip-path:url(#clip-path-3);}.cls-6{fill:url(#linear-gradient);}</style><clipPath id="clip-path"><rect class="cls-1" x="7.11" y="216.86" width="592.83" height="448.76"/></clipPath><clipPath id="clip-path-2" transform="translate(19.95 -136.47)"><rect class="cls-2" x="7.11" y="216.86" width="592.83" height="448.76"/></clipPath><clipPath id="clip-path-3" transform="translate(19.95 -136.47)"><rect class="cls-1" x="1.86" y="216.25" width="592.83" height="448.76"/></clipPath><linearGradient id="linear-gradient" x1="1135.36" y1="650.81" x2="1135.36" y2="202.05" gradientTransform="translate(1453.59 730.58) rotate(180)" gradientUnits="userSpaceOnUse"><stop offset="0" stop-color="#4e5078"/><stop offset="0.52" stop-color="#694185"/><stop offset="1" stop-color="#a93270"/></linearGradient></defs><path class="cls-3" d="M1412.31,243.48c-19.4-8.75-47.21,12.35-47.21,12.35l3.49,13.12s6.68-16.25,22.74-18c0,0,13-2,15.57,3.13,0,0,1.75,3.91-1,5.78,0,0-7,3.91-7.31,9.06.63,4.38,6,5.32,6.2,8.75,0,4.54-6.2,9.22-11,3.29-1.11-1.88,1.27-12,1.27-15.16,0,0,0-8.13-6.84-8.75,0,0-7.15-1.25-7,8.75,0,0,0,20,2.86,23,1.91,1.09,14.47,6.87,25.28,2.5,1.43-.78,6.36-2.58,9.06-10.31,3.65-12-10-12-6.2-13.91a16.56,16.56,0,0,0,7.47-7.19C1421.37,257.08,1425.19,249.29,1412.31,243.48Z" transform="translate(19.95 -136.47)"/><path class="cls-3" d="M1282.19,226.3c-19.39-8.75-47.21,12.34-47.21,12.34l3.49,13.13s6.68-16.25,22.74-18c0,0,13-2,15.58,3.12,0,0,1.74,3.91-1,5.79,0,0-7,3.9-7.31,9.06.64,4.37,6,5.31,6.2,8.75,0,4.53-6.2,9.22-11,3.28-1.11-1.87,1.27-12,1.27-15.16,0,0,0-8.12-6.83-8.75,0,0-7.16-1.25-7,8.75,0,0,0,20,2.86,23,1.91,1.1,14.47,6.88,25.28,2.5,1.43-.78,6.36-2.57,9.06-10.31,3.66-12-10-12-6.2-13.91a16.44,16.44,0,0,0,7.47-7.18C1291.25,239.89,1295.07,232.11,1282.19,226.3Z" transform="translate(19.95 -136.47)"/><path class="cls-3" d="M1363.21,383.42c-19.4-8.75-47.22,12.35-47.22,12.35l3.5,13.12s6.68-16.25,22.73-18c0,0,13-2,15.58,3.13,0,0,1.75,3.9-1,5.78,0,0-7,3.91-7.31,9.06.63,4.38,6,5.31,6.2,8.75,0,4.53-6.2,9.22-11,3.28-1.12-1.87,1.27-12,1.27-15.15,0,0,0-8.13-6.84-8.75,0,0-7.15-1.25-7,8.75,0,0,0,20,2.86,23,1.91,1.09,14.47,6.87,25.28,2.5,1.43-.78,6.35-2.58,9.06-10.32,3.65-12-10-12-6.2-13.9a16.56,16.56,0,0,0,7.47-7.19C1372.27,397,1376.08,389.23,1363.21,383.42Z" transform="translate(19.95 -136.47)"/><path class="cls-3" d="M1343.49,232.65c-9.28-4.58-22.59,6.47-22.59,6.47l1.68,6.87s3.19-8.51,10.87-9.41c0,0,6.23-1.06,7.45,1.64,0,0,.84,2-.46,3,0,0-3.34,2-3.49,4.74.3,2.29,2.89,2.79,3,4.59,0,2.37-3,4.83-5.24,1.71-.54-1,.6-6.3.6-7.93,0,0,0-4.26-3.26-4.59,0,0-3.43-.65-3.35,4.59,0,0,0,10.47,1.37,12,.91.57,6.92,3.6,12.09,1.31.68-.41,3-1.35,4.33-5.41,1.75-6.3-4.79-6.3-3-7.28a8.29,8.29,0,0,0,3.57-3.76C1347.82,239.77,1349.64,235.69,1343.49,232.65Z" transform="translate(19.95 -136.47)"/><path class="cls-3" d="M1213.44,218.36c-9.28-4.58-22.58,6.47-22.58,6.47l1.67,6.87s3.2-8.51,10.87-9.41c0,0,6.24-1.07,7.46,1.63,0,0,.83,2.05-.46,3,0,0-3.35,2.05-3.5,4.75.31,2.29,2.89,2.78,3,4.58,0,2.38-3,4.83-5.25,1.72-.53-1,.61-6.3.61-7.94,0,0,0-4.25-3.27-4.58,0,0-3.42-.65-3.35,4.58,0,0,0,10.48,1.37,12,.92.57,6.92,3.6,12.09,1.31.69-.41,3-1.35,4.34-5.41,1.74-6.3-4.79-6.3-3-7.28A8.21,8.21,0,0,0,1217,227C1217.77,225.48,1219.6,221.4,1213.44,218.36Z" transform="translate(19.95 -136.47)"/><path class="cls-3" d="M1424.5,389.77c-9.27-4.58-22.58,6.47-22.58,6.47l1.67,6.88s3.2-8.52,10.88-9.42c0,0,6.23-1.06,7.45,1.64,0,0,.83,2.05-.46,3,0,0-3.34,2.05-3.5,4.75.31,2.29,2.89,2.78,3,4.58,0,2.37-3,4.83-5.25,1.72-.53-1,.61-6.3.61-7.94,0,0,0-4.26-3.27-4.58,0,0-3.42-.66-3.34,4.58,0,0,0,10.48,1.36,12,.92.57,6.92,3.6,12.09,1.31.69-.41,3-1.35,4.34-5.4,1.75-6.3-4.79-6.3-3-7.29a8.31,8.31,0,0,0,3.58-3.76C1428.84,396.9,1430.66,392.82,1424.5,389.77Z" transform="translate(19.95 -136.47)"/><path class="cls-3" d="M1294.38,372.59c-9.27-4.58-22.58,6.47-22.58,6.47l1.68,6.87s3.19-8.51,10.87-9.41c0,0,6.23-1.07,7.45,1.63,0,0,.84,2.05-.46,3,0,0-3.34,2.05-3.49,4.75.3,2.29,2.88,2.78,3,4.58,0,2.38-3,4.83-5.25,1.72-.53-1,.61-6.3.61-7.94,0,0,0-4.25-3.27-4.58,0,0-3.42-.65-3.34,4.58,0,0,0,10.48,1.37,12,.91.57,6.92,3.6,12.09,1.31.68-.41,3-1.35,4.33-5.41,1.75-6.3-4.79-6.3-3-7.28a8.23,8.23,0,0,0,3.58-3.77C1298.72,379.71,1300.54,375.63,1294.38,372.59Z" transform="translate(19.95 -136.47)"/><path class="cls-3" d="M1360.67,296.48c-9.27-4.58-22.58,6.47-22.58,6.47l1.67,6.87s3.2-8.51,10.88-9.41c0,0,6.23-1.06,7.45,1.64,0,0,.83,2-.46,3,0,0-3.35,2-3.5,4.74.31,2.3,2.89,2.79,3,4.59,0,2.37-3,4.83-5.25,1.72-.53-1,.61-6.31.61-7.94,0,0,0-4.26-3.27-4.59,0,0-3.42-.65-3.34,4.59,0,0,0,10.47,1.36,12,.92.57,6.92,3.6,12.09,1.31.69-.41,3-1.35,4.34-5.4,1.74-6.31-4.79-6.31-3-7.29a8.23,8.23,0,0,0,3.57-3.76C1365,303.6,1366.83,299.53,1360.67,296.48Z" transform="translate(19.95 -136.47)"/><path class="cls-3" d="M1230.55,279.3c-9.27-4.59-22.58,6.46-22.58,6.46l1.67,6.88s3.2-8.51,10.88-9.41c0,0,6.23-1.07,7.45,1.63,0,0,.83,2.05-.46,3,0,0-3.34,2.05-3.5,4.75.31,2.29,2.89,2.78,3,4.58,0,2.38-3,4.83-5.25,1.72-.53-1,.61-6.3.61-7.94,0,0,0-4.25-3.27-4.58,0,0-3.42-.66-3.34,4.58,0,0,0,10.48,1.36,12,.92.58,6.92,3.6,12.09,1.31.69-.41,3-1.35,4.34-5.4,1.75-6.3-4.79-6.3-3-7.28a8.38,8.38,0,0,0,3.58-3.77C1234.89,286.42,1236.71,282.34,1230.55,279.3Z" transform="translate(19.95 -136.47)"/><path class="cls-3" d="M1441.69,453.61c-9.28-4.59-22.58,6.46-22.58,6.46l1.67,6.88s3.19-8.52,10.87-9.42c0,0,6.24-1.06,7.45,1.64,0,0,.84,2.05-.45,3,0,0-3.35,2.05-3.5,4.75.3,2.29,2.89,2.78,3,4.58,0,2.37-3,4.83-5.24,1.72-.53-1,.61-6.3.61-7.94,0,0,0-4.26-3.27-4.58,0,0-3.42-.66-3.35,4.58,0,0,0,10.48,1.37,12,.91.58,6.92,3.6,12.09,1.31a8.21,8.21,0,0,0,4.33-5.4c1.75-6.3-4.79-6.3-3-7.29a8.29,8.29,0,0,0,3.57-3.76C1446,460.73,1447.85,456.65,1441.69,453.61Z" transform="translate(19.95 -136.47)"/><path class="cls-3" d="M1311.57,436.42c-9.28-4.58-22.58,6.47-22.58,6.47l1.67,6.87s3.19-8.51,10.87-9.41c0,0,6.24-1.07,7.45,1.64,0,0,.84,2-.45,3,0,0-3.35,2.05-3.5,4.75.3,2.29,2.89,2.78,3,4.59,0,2.37-3,4.82-5.25,1.71-.53-1,.61-6.3.61-7.94,0,0,0-4.25-3.27-4.58,0,0-3.42-.65-3.35,4.58,0,0,0,10.48,1.37,12,.91.57,6.92,3.6,12.09,1.31.69-.41,3-1.35,4.33-5.41,1.75-6.3-4.79-6.3-3-7.28a8.26,8.26,0,0,0,3.57-3.77C1315.9,443.54,1317.73,439.46,1311.57,436.42Z" transform="translate(19.95 -136.47)"/><g class="cls-4"><g class="cls-5"><rect class="cls-6" x="21.81" y="79.77" width="592.83" height="448.76"/></g><path class="cls-3" d="M457.73,222.14c-37.65-78.44-180.25-85.67-180.25-85.67l-23.61,50.28s63.68-33.27,118.45,3.62c0,0,46.14,28,40.52,50.8,0,0-4.81,16.82-18.21,15.58,0,0-32.17-6.19-46.74,9.11-9.53,15.36,4.92,32.53-3.64,43.7-11.93,14.18-43.67,12.53-43-18.61,1.45-8.8,35.66-34.3,43.88-44.08,0,0,21.4-25.43,1.65-45.38,0,0-19.09-22.75-44.93,9,0,0-52.66,62.6-51.52,79.42,3.09,8.45,27.17,59.6,72.52,74.37,6.53,1.32,26.67,8.69,55.5-8.42,43.12-28,.34-64,17.22-59.84s29.92,1.8,42.3-2.82S482.73,274.23,457.73,222.14Z" transform="translate(19.95 -136.47)"/><path class="cls-3" d="M409.3,476.22c-30.78-81.39-172.23-100.84-172.23-100.84l-27.84,48.07s66.3-27.68,117.7,13.78c0,0,43.57,31.82,36,54.08,0,0-6.24,16.36-19.48,14,0,0-31.52-8.93-47.35,5.07-10.81,14.49,2.1,32.83-7.38,43.23-13.1,13.1-44.58,8.73-41.2-22.23,2.2-8.64,38.47-31.12,47.5-40.16,0,0,23.5-23.49,5.54-45.07,0,0-17.07-24.3-45.53,5.08,0,0-57.84,57.84-58.15,74.7,2.35,8.68,22,61.71,65.86,80.32,6.4,1.88,25.83,10.95,56-3.62,45.36-24.22,5.83-63.75,22.29-58.14s29.66,4.35,42.39.82S429.73,530.25,409.3,476.22Z" transform="translate(19.95 -136.47)"/><path class="cls-3" d="M214.14,320.08C183.36,238.69,41.91,219.24,41.91,219.24L14.07,267.31s66.3-27.68,117.7,13.78c0,0,43.57,31.82,36,54.08,0,0-6.24,16.36-19.48,14,0,0-31.52-8.93-47.35,5.07-10.82,14.49,2.1,32.83-7.38,43.23-13.1,13.1-44.59,8.73-41.21-22.23,2.21-8.64,38.47-31.12,47.51-40.15,0,0,23.5-23.5,5.54-45.08,0,0-17.07-24.3-45.53,5.08,0,0-57.84,57.84-58.15,74.7,2.35,8.68,22,61.71,65.86,80.32,6.4,1.88,25.83,10.95,56-3.62,45.36-24.22,5.83-63.75,22.28-58.14s29.66,4.35,42.4.82S234.57,374.11,214.14,320.08Z" transform="translate(19.95 -136.47)"/><path class="cls-3" d="M605.49,627.16c-30.78-81.38-172.23-100.83-172.23-100.83L405.41,574.4s66.31-27.69,117.71,13.77c0,0,43.57,31.82,36,54.09,0,0-6.24,16.35-19.48,14,0,0-31.52-8.93-47.35,5.06-10.82,14.49,2.1,32.84-7.38,43.24-13.1,13.1-44.59,8.73-41.21-22.23,2.21-8.64,38.47-31.12,47.51-40.16,0,0,23.5-23.49,5.54-45.07,0,0-17.07-24.3-45.53,5.08,0,0-57.84,57.84-58.15,74.7,2.35,8.68,21.95,61.71,65.86,80.32,6.4,1.88,25.83,11,56-3.62,45.36-24.22,5.83-63.76,22.28-58.14s29.66,4.35,42.4.82S625.92,681.2,605.49,627.16Z" transform="translate(19.95 -136.47)"/><path class="cls-3" d="M687.38,388.09c-37.65-78.44-180.24-85.67-180.24-85.67L483.52,352.7S547.2,319.42,602,356.32c0,0,46.14,28,40.52,50.79,0,0-4.81,16.83-18.2,15.58,0,0-32.18-6.19-46.75,9.11-9.53,15.37,4.92,32.53-3.63,43.71-11.94,14.18-43.68,12.53-43-18.61,1.45-8.8,35.66-34.3,43.89-44.08,0,0,21.39-25.43,1.64-45.39,0,0-19.09-22.74-44.92,9,0,0-52.66,62.59-51.52,79.42,3.09,8.44,27.16,59.6,72.51,74.37,6.53,1.32,26.67,8.69,55.51-8.42,43.12-28,.33-64,17.21-59.84s29.93,1.79,42.31-2.82S712.38,440.17,687.38,388.09Z" transform="translate(19.95 -136.47)"/><path class="cls-3" d="M187.43,577.21C149.78,498.77,7.18,491.54,7.18,491.54l-23.61,50.28S47.25,508.55,102,545.44c0,0,46.15,28,40.53,50.79,0,0-4.81,16.83-18.21,15.59,0,0-32.17-6.2-46.74,9.1-9.53,15.37,4.91,32.53-3.64,43.71C62,678.81,30.28,677.16,31,646c1.45-8.8,35.65-34.3,43.88-44.08,0,0,21.4-25.43,1.65-45.38,0,0-19.09-22.75-44.93,9,0,0-52.66,62.59-51.52,79.42,3.09,8.45,27.17,59.6,72.52,74.37,6.53,1.32,26.67,8.69,55.5-8.42,43.12-28,.34-64,17.22-59.84s29.92,1.79,42.3-2.82S212.43,629.3,187.43,577.21Z" transform="translate(19.95 -136.47)"/></g></svg>