<svg id="Layer_1" data-name="Layer 1" xmlns="http://www.w3.org/2000/svg" xmlns:xlink="http://www.w3.org/1999/xlink" viewBox="0 0 1459.07 306.56"><defs><style>.cls-1{fill:none;}.cls-2{clip-path:url(#clip-path);}.cls-3{fill:url(#linear-gradient);}.cls-4,.cls-5{fill:#1d1b27;}.cls-4{fill-opacity:0.5;opacity:0.39;}.cls-6{fill:#fff;}</style><clipPath id="clip-path" transform="translate(432.67 -196.11)"><rect class="cls-1" x="-417.86" y="196.11" width="1440" height="268"/></clipPath><linearGradient id="linear-gradient" x1="1131.5" y1="670.95" x2="1131.5" y2="402.95" gradientTransform="translate(1866.31 670.95) rotate(180)" gradientUnits="userSpaceOnUse"><stop offset="0" stop-color="#4e5078"/><stop offset="0.52" stop-color="#694185"/><stop offset="1" stop-color="#a93270"/></linearGradient></defs><g class="cls-2"><rect class="cls-3" x="14.81" width="1440" height="268"/></g><path class="cls-4" d="M265.7,231.33c-19.39-8.75-47.21,12.35-47.21,12.35L222,256.8s6.67-16.25,22.73-18c0,0,13-2,15.58,3.13,0,0,1.75,3.91-1,5.78,0,0-7,3.91-7.31,9.06.64,4.38,6,5.32,6.2,8.75,0,4.54-6.2,9.22-11,3.29-1.11-1.88,1.27-12,1.27-15.16,0,0,0-8.13-6.83-8.75,0,0-7.15-1.25-7,8.75,0,0,0,20,2.87,23,1.9,1.09,14.46,6.87,25.27,2.5,1.43-.78,6.36-2.57,9.06-10.31,3.66-12-10-12-6.2-13.91a16.46,16.46,0,0,0,7.47-7.19C274.76,244.93,278.58,237.14,265.7,231.33Z" transform="translate(432.67 -196.11)"/><path class="cls-4" d="M403.35,303.23c-19.39-8.75-47.21,12.35-47.21,12.35l3.5,13.12s6.67-16.25,22.73-18c0,0,13-2,15.58,3.13,0,0,1.75,3.91-.95,5.78,0,0-7,3.91-7.32,9.06.64,4.38,6,5.32,6.2,8.75,0,4.54-6.2,9.22-11,3.29-1.11-1.88,1.28-12,1.28-15.16,0,0,0-8.13-6.84-8.75,0,0-7.15-1.25-7,8.75,0,0,0,20,2.86,23,1.9,1.09,14.46,6.87,25.27,2.5,1.43-.78,6.36-2.58,9.06-10.31,3.66-12-10-12-6.2-13.91a16.53,16.53,0,0,0,7.48-7.19C412.42,316.83,416.23,309,403.35,303.23Z" transform="translate(432.67 -196.11)"/><path class="cls-4" d="M633.59,255.35c-19.4-8.76-47.21,12.34-47.21,12.34l3.49,13.13s6.68-16.26,22.74-18c0,0,13-2,15.57,3.12,0,0,1.75,3.91-.95,5.78,0,0-7,3.91-7.31,9.07.63,4.37,6,5.31,6.2,8.75,0,4.53-6.2,9.22-11,3.28-1.11-1.88,1.27-12,1.27-15.16,0,0,0-8.13-6.84-8.75,0,0-7.15-1.25-7,8.75,0,0,0,20,2.86,23,1.91,1.09,14.47,6.88,25.28,2.5,1.43-.78,6.36-2.57,9.06-10.31,3.65-12-10-12-6.2-13.91a16.46,16.46,0,0,0,7.47-7.19C642.65,268.94,646.47,261.15,633.59,255.35Z" transform="translate(432.67 -196.11)"/><path class="cls-4" d="M992.59,223.35c-19.4-8.76-47.21,12.34-47.21,12.34l3.49,13.13s6.68-16.26,22.74-18c0,0,13-2,15.57,3.12,0,0,1.75,3.91-.95,5.78,0,0-7,3.91-7.31,9.07.63,4.37,6,5.31,6.2,8.75,0,4.53-6.2,9.22-11,3.28-1.11-1.88,1.27-12,1.27-15.16,0,0,0-8.13-6.84-8.75,0,0-7.15-1.25-7,8.75,0,0,0,20,2.86,23,1.91,1.09,14.47,6.88,25.28,2.5,1.43-.78,6.36-2.57,9.06-10.31,3.65-12-10-12-6.2-13.91a16.46,16.46,0,0,0,7.47-7.19C1001.65,236.94,1005.47,229.15,992.59,223.35Z" transform="translate(432.67 -196.11)"/><path class="cls-4" d="M135,270.16C115.62,261.41,87.8,282.5,87.8,282.5l3.49,13.13s6.68-16.25,22.74-18c0,0,13-2,15.58,3.13,0,0,1.74,3.9-1,5.78,0,0-7,3.9-7.31,9.06.63,4.38,6,5.31,6.2,8.75,0,4.53-6.2,9.22-11,3.28-1.11-1.87,1.27-12,1.27-15.15,0,0,0-8.13-6.83-8.76,0,0-7.16-1.25-7,8.76,0,0,0,20,2.86,23,1.91,1.09,14.47,6.87,25.28,2.5,1.43-.79,6.36-2.58,9.06-10.32,3.66-12-10-12-6.2-13.9a16.51,16.51,0,0,0,7.47-7.19C144.07,283.75,147.89,276,135,270.16Z" transform="translate(432.67 -196.11)"/><path class="cls-4" d="M503.47,238.16c-19.39-8.75-47.21,12.34-47.21,12.34l3.49,13.13s6.68-16.25,22.74-18c0,0,13-2,15.58,3.13,0,0,1.74,3.9-1,5.78,0,0-7,3.9-7.31,9.06.64,4.38,6,5.31,6.2,8.75,0,4.53-6.2,9.22-11,3.28-1.11-1.87,1.27-12,1.27-15.15,0,0,0-8.13-6.83-8.76,0,0-7.16-1.25-7,8.76,0,0,0,20,2.86,23,1.91,1.09,14.47,6.87,25.28,2.5,1.43-.79,6.36-2.58,9.06-10.32,3.66-12-10-12-6.2-13.9a16.51,16.51,0,0,0,7.47-7.19C512.53,251.75,516.35,244,503.47,238.16Z" transform="translate(432.67 -196.11)"/><path class="cls-4" d="M862.47,206.16c-19.39-8.75-47.21,12.34-47.21,12.34l3.49,13.13s6.68-16.25,22.74-18c0,0,13-2,15.58,3.13,0,0,1.74,3.9-1,5.78,0,0-7,3.9-7.31,9.06.64,4.38,6,5.31,6.2,8.75,0,4.53-6.2,9.22-11,3.28-1.11-1.87,1.27-12,1.27-15.15,0,0,0-8.13-6.83-8.76,0,0-7.16-1.25-7,8.76,0,0,0,20,2.86,23,1.91,1.09,14.47,6.87,25.28,2.5,1.43-.79,6.36-2.58,9.06-10.32,3.66-12-10-12-6.2-13.9a16.51,16.51,0,0,0,7.47-7.19C871.53,219.75,875.35,212,862.47,206.16Z" transform="translate(432.67 -196.11)"/><path class="cls-4" d="M4.89,253c-19.39-8.75-47.21,12.35-47.21,12.35l3.5,13.12s6.67-16.25,22.73-18c0,0,13-2,15.58,3.13,0,0,1.75,3.91-1,5.78,0,0-7,3.91-7.31,9.06.64,4.38,6,5.32,6.2,8.76,0,4.53-6.2,9.21-11,3.28-1.11-1.88,1.27-12,1.27-15.16,0,0,0-8.13-6.83-8.75,0,0-7.15-1.25-7,8.75,0,0,0,20,2.87,23,1.9,1.09,14.46,6.88,25.27,2.5,1.43-.78,6.36-2.57,9.06-10.31,3.66-12-10-12-6.2-13.91a16.51,16.51,0,0,0,7.47-7.19C14,266.57,17.77,258.78,4.89,253Z" transform="translate(432.67 -196.11)"/><path class="cls-4" d="M373.35,221c-19.39-8.75-47.21,12.35-47.21,12.35l3.5,13.12s6.67-16.25,22.73-18c0,0,13-2,15.58,3.13,0,0,1.75,3.91-.95,5.78,0,0-7,3.91-7.32,9.06.64,4.38,6,5.32,6.2,8.76,0,4.53-6.2,9.21-11,3.28-1.11-1.88,1.28-12,1.28-15.16,0,0,0-8.13-6.84-8.75,0,0-7.15-1.25-7,8.75,0,0,0,20,2.86,23,1.9,1.09,14.46,6.88,25.27,2.5,1.43-.78,6.36-2.57,9.06-10.31,3.66-12-10-12-6.2-13.91a16.53,16.53,0,0,0,7.48-7.19C382.42,234.57,386.23,226.78,373.35,221Z" transform="translate(432.67 -196.11)"/><path class="cls-4" d="M735.35,211.23c-19.39-8.75-47.21,12.35-47.21,12.35l3.5,13.12s6.67-16.25,22.73-18c0,0,13-2,15.58,3.13,0,0,1.75,3.91-1,5.78,0,0-7,3.91-7.31,9.06.64,4.38,6,5.32,6.2,8.75,0,4.54-6.2,9.22-11,3.29-1.11-1.88,1.27-12,1.27-15.16,0,0,0-8.13-6.83-8.75,0,0-7.15-1.25-7,8.75,0,0,0,20,2.87,23,1.9,1.09,14.46,6.87,25.27,2.5,1.43-.78,6.36-2.57,9.06-10.31,3.66-12-10-12-6.2-13.91a16.53,16.53,0,0,0,7.48-7.19C744.41,224.83,748.23,217,735.35,211.23Z" transform="translate(432.67 -196.11)"/><path class="cls-4" d="M-125.23,235.79c-19.39-8.75-47.21,12.34-47.21,12.34l3.5,13.13s6.68-16.25,22.73-18c0,0,13-2,15.58,3.12,0,0,1.75,3.91-1,5.79,0,0-7,3.9-7.32,9.06.64,4.37,6,5.31,6.2,8.75,0,4.53-6.2,9.22-11,3.28-1.11-1.87,1.28-12,1.28-15.16,0,0,0-8.12-6.84-8.75,0,0-7.15-1.25-7,8.75,0,0,0,20,2.86,23,1.91,1.1,14.46,6.88,25.27,2.5,1.43-.78,6.36-2.57,9.06-10.31,3.66-12-10-12-6.2-13.91a16.47,16.47,0,0,0,7.48-7.18C-116.16,249.38-112.35,241.6-125.23,235.79Z" transform="translate(432.67 -196.11)"/><path class="cls-4" d="M-255.34,218.6c-19.4-8.75-47.22,12.35-47.22,12.35l3.5,13.12s6.68-16.25,22.73-18c0,0,13-2,15.58,3.13,0,0,1.75,3.91-.95,5.78,0,0-7,3.91-7.31,9.06.63,4.38,6,5.32,6.2,8.75,0,4.54-6.2,9.22-11,3.29-1.12-1.88,1.27-12,1.27-15.16,0,0,0-8.13-6.84-8.75,0,0-7.15-1.25-7,8.75,0,0,0,20,2.86,23,1.91,1.09,14.47,6.87,25.28,2.5,1.43-.78,6.36-2.57,9.06-10.31,3.65-12-10-12-6.2-13.91a16.56,16.56,0,0,0,7.47-7.19C-246.28,232.2-242.47,224.41-255.34,218.6Z" transform="translate(432.67 -196.11)"/><path class="cls-4" d="M-366.65,277.23c-19.39-8.75-47.21,12.35-47.21,12.35l3.5,13.12s6.67-16.25,22.73-18c0,0,13-2,15.58,3.13,0,0,1.75,3.91-.95,5.78,0,0-7,3.91-7.32,9.06.64,4.38,6,5.32,6.2,8.75,0,4.54-6.2,9.22-11,3.29-1.11-1.88,1.28-12,1.28-15.16,0,0,0-8.13-6.84-8.75,0,0-7.15-1.25-7,8.75,0,0,0,20,2.86,23,1.9,1.09,14.46,6.87,25.27,2.5,1.43-.78,6.36-2.58,9.06-10.31,3.66-12-10-12-6.2-13.91a16.53,16.53,0,0,0,7.48-7.19C-357.58,290.83-353.77,283-366.65,277.23Z" transform="translate(432.67 -196.11)"/><path class="cls-4" d="M-385.46,201.42c-19.39-8.75-47.21,12.34-47.21,12.34l3.49,13.13s6.68-16.25,22.74-18c0,0,13-2,15.57,3.12,0,0,1.75,3.91-.95,5.79,0,0-7,3.9-7.31,9.06.63,4.37,6,5.31,6.2,8.75,0,4.53-6.2,9.22-11,3.28-1.11-1.87,1.27-12,1.27-15.16,0,0,0-8.12-6.83-8.75,0,0-7.16-1.25-7,8.75,0,0,0,20,2.86,23,1.91,1.1,14.47,6.88,25.28,2.5,1.43-.78,6.36-2.57,9.06-10.31,3.66-12-10-12-6.2-13.91a16.49,16.49,0,0,0,7.47-7.18C-376.4,215-372.58,207.23-385.46,201.42Z" transform="translate(432.67 -196.11)"/><path class="cls-4" d="M346.15,444.47c-19.4-8.75-47.22,12.34-47.22,12.34l3.5,13.13s6.68-16.25,22.73-18c0,0,13-2,15.58,3.12,0,0,1.75,3.91-.95,5.79,0,0-7,3.9-7.32,9.06.64,4.37,6,5.31,6.2,8.75,0,4.53-6.2,9.22-11,3.28-1.12-1.87,1.27-12,1.27-15.16,0,0,0-8.12-6.84-8.75,0,0-7.15-1.25-7,8.75,0,0,0,20,2.86,23,1.91,1.1,14.46,6.88,25.27,2.5,1.44-.78,6.36-2.57,9.07-10.31,3.65-12-10-12-6.2-13.91a16.49,16.49,0,0,0,7.47-7.18C355.21,458.06,359,450.28,346.15,444.47Z" transform="translate(432.67 -196.11)"/><path class="cls-4" d="M714.61,412.47c-19.4-8.75-47.22,12.34-47.22,12.34l3.5,13.13s6.68-16.25,22.73-18c0,0,13-2,15.58,3.12,0,0,1.75,3.91-1,5.79,0,0-7,3.9-7.31,9.06.63,4.37,6,5.31,6.19,8.75,0,4.53-6.19,9.22-11,3.28-1.12-1.87,1.27-12,1.27-15.16,0,0,0-8.12-6.84-8.75,0,0-7.15-1.25-7,8.75,0,0,0,20,2.86,23,1.91,1.1,14.47,6.88,25.28,2.5,1.43-.78,6.35-2.57,9.06-10.31,3.65-12-10-12-6.2-13.91a16.49,16.49,0,0,0,7.47-7.18C723.67,426.06,727.48,418.28,714.61,412.47Z" transform="translate(432.67 -196.11)"/><path class="cls-4" d="M216,427.28c-19.4-8.75-47.22,12.35-47.22,12.35l3.5,13.12s6.68-16.25,22.73-18c0,0,13-2,15.58,3.13,0,0,1.75,3.91-1,5.78,0,0-7,3.91-7.31,9.06.63,4.38,6,5.32,6.2,8.75,0,4.54-6.2,9.22-11,3.29-1.12-1.88,1.27-12,1.27-15.16,0,0,0-8.13-6.84-8.75,0,0-7.15-1.25-7,8.75,0,0,0,20,2.86,23,1.91,1.09,14.47,6.87,25.28,2.5,1.43-.78,6.35-2.57,9.06-10.31,3.65-12-10-12-6.2-13.91a16.56,16.56,0,0,0,7.47-7.19C225.09,440.88,228.9,433.09,216,427.28Z" transform="translate(432.67 -196.11)"/><path class="cls-4" d="M584.49,395.28c-19.4-8.75-47.22,12.35-47.22,12.35l3.5,13.12s6.68-16.25,22.73-18c0,0,13-2,15.58,3.13,0,0,1.75,3.91-1,5.78,0,0-7,3.91-7.31,9.06.63,4.38,6,5.32,6.2,8.75,0,4.54-6.2,9.22-11,3.29-1.12-1.88,1.27-12,1.27-15.16,0,0,0-8.13-6.84-8.75,0,0-7.15-1.25-7,8.75,0,0,0,20,2.86,23,1.91,1.09,14.47,6.87,25.28,2.5,1.43-.78,6.35-2.57,9.06-10.31,3.65-12-10-12-6.2-13.91a16.56,16.56,0,0,0,7.47-7.19C593.55,408.88,597.36,401.09,584.49,395.28Z" transform="translate(432.67 -196.11)"/><path class="cls-4" d="M943.49,363.28c-19.4-8.75-47.22,12.35-47.22,12.35l3.5,13.12s6.68-16.25,22.73-18c0,0,13-2,15.58,3.13,0,0,1.75,3.91-1,5.78,0,0-7,3.91-7.31,9.06.63,4.38,6,5.32,6.2,8.75,0,4.54-6.2,9.22-11,3.29-1.12-1.88,1.27-12,1.27-15.16,0,0,0-8.13-6.84-8.75,0,0-7.15-1.25-7,8.75,0,0,0,20,2.86,23,1.91,1.09,14.47,6.87,25.28,2.5,1.43-.78,6.35-2.57,9.06-10.31,3.65-12-10-12-6.2-13.91a16.56,16.56,0,0,0,7.47-7.19C952.55,376.88,956.36,369.09,943.49,363.28Z" transform="translate(432.67 -196.11)"/><path class="cls-4" d="M85.91,410.1c-19.39-8.75-47.21,12.34-47.21,12.34l3.49,13.13s6.68-16.25,22.74-18c0,0,13-2,15.57,3.12,0,0,1.75,3.91-1,5.79,0,0-7,3.9-7.31,9.06.63,4.37,6,5.31,6.2,8.75,0,4.53-6.2,9.22-11,3.28-1.11-1.87,1.27-12,1.27-15.16,0,0,0-8.12-6.83-8.75,0,0-7.16-1.25-7,8.75,0,0,0,20,2.86,23,1.91,1.1,14.47,6.88,25.28,2.5,1.43-.78,6.36-2.57,9.06-10.31,3.66-12-10-12-6.2-13.91a16.49,16.49,0,0,0,7.47-7.18C95,423.69,98.79,415.91,85.91,410.1Z" transform="translate(432.67 -196.11)"/><path class="cls-4" d="M454.37,378.1c-19.39-8.75-47.21,12.34-47.21,12.34l3.49,13.13s6.68-16.25,22.74-18c0,0,13-2,15.58,3.12,0,0,1.74,3.91-1,5.79,0,0-7,3.9-7.31,9.06.64,4.37,6,5.31,6.2,8.75,0,4.53-6.2,9.22-11,3.28-1.11-1.87,1.27-12,1.27-15.16,0,0,0-8.12-6.83-8.75,0,0-7.16-1.25-7,8.75,0,0,0,20,2.86,23,1.91,1.1,14.47,6.88,25.28,2.5,1.43-.78,6.36-2.57,9.06-10.31,3.66-12-10-12-6.2-13.91a16.44,16.44,0,0,0,7.47-7.18C463.43,391.69,467.25,383.91,454.37,378.1Z" transform="translate(432.67 -196.11)"/><path class="cls-4" d="M813.37,346.1c-19.39-8.75-47.21,12.34-47.21,12.34l3.49,13.13s6.68-16.25,22.74-18c0,0,13-2,15.58,3.12,0,0,1.74,3.91-1,5.79,0,0-7,3.9-7.31,9.06.63,4.37,6,5.31,6.2,8.75,0,4.53-6.2,9.22-11,3.28-1.11-1.87,1.27-12,1.27-15.16,0,0,0-8.12-6.83-8.75,0,0-7.16-1.25-7,8.75,0,0,0,20,2.86,23,1.91,1.1,14.47,6.88,25.28,2.5,1.43-.78,6.36-2.57,9.06-10.31,3.66-12-10-12-6.2-13.91a16.44,16.44,0,0,0,7.47-7.18C822.43,359.69,826.25,351.91,813.37,346.1Z" transform="translate(432.67 -196.11)"/><path class="cls-4" d="M-44.21,392.91c-19.39-8.75-47.21,12.35-47.21,12.35l3.5,13.12s6.67-16.25,22.73-18c0,0,13-2,15.58,3.13,0,0,1.75,3.9-1,5.78,0,0-7,3.91-7.31,9.06.64,4.38,6,5.32,6.2,8.75,0,4.54-6.2,9.22-11,3.29-1.11-1.88,1.27-12,1.27-15.16,0,0,0-8.13-6.83-8.75,0,0-7.16-1.25-7,8.75,0,0,0,20,2.86,23,1.91,1.09,14.47,6.87,25.28,2.5,1.43-.78,6.36-2.58,9.06-10.31,3.66-12-10-12-6.2-13.91a16.51,16.51,0,0,0,7.47-7.19C-35.15,406.51-31.33,398.72-44.21,392.91Z" transform="translate(432.67 -196.11)"/><path class="cls-4" d="M-304.44,358.54c-19.4-8.75-47.22,12.35-47.22,12.35l3.5,13.12s6.68-16.25,22.73-18c0,0,13-2,15.58,3.13,0,0,1.75,3.9-.95,5.78,0,0-7,3.91-7.31,9.06.63,4.38,6,5.31,6.19,8.75,0,4.53-6.19,9.22-11,3.28-1.12-1.87,1.27-12,1.27-15.15,0,0,0-8.13-6.84-8.75,0,0-7.15-1.25-7,8.75,0,0,0,20,2.86,23,1.91,1.09,14.47,6.87,25.27,2.5,1.44-.78,6.36-2.58,9.07-10.32,3.65-12-10-12-6.2-13.9A16.56,16.56,0,0,0-297,375C-295.38,372.14-291.57,364.35-304.44,358.54Z" transform="translate(432.67 -196.11)"/><path class="cls-4" d="M-283.65,436.23c-19.39-8.75-47.21,12.35-47.21,12.35l3.5,13.12s6.67-16.25,22.73-18c0,0,13-2,15.58,3.13,0,0,1.75,3.91-.95,5.78,0,0-7,3.91-7.32,9.06.64,4.38,6,5.32,6.2,8.75,0,4.54-6.2,9.22-11,3.29-1.11-1.88,1.28-12,1.28-15.16,0,0,0-8.13-6.84-8.75,0,0-7.15-1.25-7,8.75,0,0,0,20,2.86,23,1.9,1.09,14.46,6.87,25.27,2.5,1.43-.78,6.36-2.58,9.06-10.31,3.66-12-10-12-6.2-13.91a16.53,16.53,0,0,0,7.48-7.19C-274.58,449.83-270.77,442-283.65,436.23Z" transform="translate(432.67 -196.11)"/><path class="cls-4" d="M-148.65,453.23c-19.39-8.75-47.21,12.35-47.21,12.35l3.5,13.12s6.67-16.25,22.73-18c0,0,13-2,15.58,3.13,0,0,1.75,3.91-.95,5.78,0,0-7,3.91-7.32,9.06.64,4.38,6,5.32,6.2,8.75,0,4.54-6.2,9.22-11,3.29-1.11-1.88,1.28-12,1.28-15.16,0,0,0-8.13-6.84-8.75,0,0-7.15-1.25-7,8.75,0,0,0,20,2.86,23,1.9,1.09,14.46,6.87,25.27,2.5,1.43-.78,6.36-2.58,9.06-10.31,3.66-12-10-12-6.2-13.91a16.53,16.53,0,0,0,7.48-7.19C-139.58,466.83-135.77,459-148.65,453.23Z" transform="translate(432.67 -196.11)"/><path class="cls-4" d="M326.42,293.7c-9.27-4.59-22.58,6.46-22.58,6.46l1.67,6.88s3.2-8.51,10.88-9.41c0,0,6.23-1.07,7.45,1.63,0,0,.83,2.05-.46,3,0,0-3.34,2-3.5,4.75.31,2.29,2.89,2.78,3,4.58,0,2.38-3,4.83-5.25,1.72-.53-1,.61-6.3.61-7.94,0,0,0-4.25-3.27-4.58,0,0-3.42-.66-3.34,4.58,0,0,0,10.48,1.37,12,.91.58,6.91,3.61,12.08,1.31.69-.41,3-1.34,4.34-5.4,1.75-6.3-4.79-6.3-3-7.28a8.23,8.23,0,0,0,3.58-3.77C330.76,300.82,332.58,296.74,326.42,293.7Z" transform="translate(432.67 -196.11)"/><path class="cls-4" d="M694.88,261.7c-9.27-4.59-22.58,6.46-22.58,6.46L674,275s3.2-8.51,10.88-9.41c0,0,6.23-1.07,7.45,1.63,0,0,.83,2.05-.46,3,0,0-3.34,2-3.5,4.75.31,2.29,2.89,2.78,3,4.58,0,2.38-3,4.83-5.25,1.72-.53-1,.61-6.3.61-7.94,0,0,0-4.25-3.27-4.58,0,0-3.42-.66-3.34,4.58,0,0,0,10.48,1.37,12,.91.58,6.91,3.61,12.08,1.31.69-.4,3-1.34,4.34-5.4,1.75-6.3-4.79-6.3-3-7.28a8.23,8.23,0,0,0,3.58-3.77C699.22,268.82,701,264.74,694.88,261.7Z" transform="translate(432.67 -196.11)"/><path class="cls-4" d="M196.3,276.51C187,271.93,173.72,283,173.72,283l1.68,6.87s3.19-8.51,10.87-9.41c0,0,6.23-1.06,7.45,1.64,0,0,.84,2-.46,3,0,0-3.34,2-3.49,4.74.3,2.3,2.89,2.79,3,4.59,0,2.37-3,4.83-5.24,1.72-.54-1,.6-6.31.6-7.94,0,0,0-4.26-3.27-4.59,0,0-3.42-.65-3.34,4.59,0,0,0,10.47,1.37,12,.91.57,6.92,3.6,12.09,1.31a8.21,8.21,0,0,0,4.33-5.4c1.75-6.31-4.79-6.31-3-7.29a8.26,8.26,0,0,0,3.58-3.76C200.64,283.63,202.46,279.56,196.3,276.51Z" transform="translate(432.67 -196.11)"/><path class="cls-4" d="M564.77,244.51c-9.28-4.58-22.58,6.47-22.58,6.47l1.67,6.87s3.19-8.51,10.87-9.41c0,0,6.23-1.06,7.45,1.64,0,0,.84,2-.46,3,0,0-3.34,2-3.49,4.74.3,2.3,2.89,2.79,3,4.59,0,2.37-3,4.83-5.24,1.72-.54-1,.6-6.31.6-7.94,0,0,0-4.26-3.26-4.59,0,0-3.43-.65-3.35,4.59,0,0,0,10.47,1.37,12,.91.57,6.92,3.6,12.09,1.31a8.21,8.21,0,0,0,4.33-5.4c1.75-6.31-4.79-6.31-3-7.29a8.29,8.29,0,0,0,3.57-3.76C569.1,251.63,570.92,247.56,564.77,244.51Z" transform="translate(432.67 -196.11)"/><path class="cls-4" d="M923.77,212.51c-9.28-4.58-22.59,6.47-22.59,6.47l1.68,6.87s3.19-8.51,10.87-9.41c0,0,6.23-1.06,7.45,1.64,0,0,.84,2-.46,3,0,0-3.34,2-3.49,4.74.3,2.3,2.89,2.79,3,4.59,0,2.37-3,4.83-5.24,1.72-.54-1,.6-6.31.6-7.94,0,0,0-4.26-3.26-4.59,0,0-3.43-.65-3.35,4.59,0,0,0,10.47,1.37,12,.91.57,6.92,3.6,12.09,1.31a8.21,8.21,0,0,0,4.33-5.4c1.75-6.31-4.79-6.31-3-7.29a8.29,8.29,0,0,0,3.57-3.76C928.1,219.63,929.92,215.56,923.77,212.51Z" transform="translate(432.67 -196.11)"/><path class="cls-4" d="M66.19,259.33c-9.28-4.59-22.58,6.46-22.58,6.46l1.67,6.88s3.19-8.51,10.87-9.41c0,0,6.24-1.07,7.45,1.63,0,0,.84,2.05-.45,3,0,0-3.35,2.05-3.5,4.75.3,2.29,2.89,2.78,3,4.58,0,2.38-3,4.83-5.24,1.72-.53-1,.61-6.3.61-7.94,0,0,0-4.25-3.27-4.58,0,0-3.42-.66-3.35,4.58,0,0,0,10.48,1.37,12,.91.58,6.92,3.61,12.09,1.31.68-.41,3-1.34,4.33-5.4,1.75-6.3-4.79-6.3-3-7.28a8.31,8.31,0,0,0,3.57-3.77C70.52,266.45,72.35,262.37,66.19,259.33Z" transform="translate(432.67 -196.11)"/><path class="cls-4" d="M434.65,227.33c-9.28-4.59-22.58,6.46-22.58,6.46l1.67,6.88s3.19-8.51,10.87-9.41c0,0,6.24-1.07,7.45,1.63,0,0,.84,2.05-.45,3,0,0-3.35,2.05-3.5,4.75.3,2.29,2.89,2.78,3,4.58,0,2.38-3,4.83-5.24,1.72-.53-1,.61-6.3.61-7.94,0,0,0-4.25-3.27-4.58,0,0-3.42-.66-3.35,4.58,0,0,0,10.48,1.37,12,.91.58,6.92,3.61,12.09,1.31.68-.41,3-1.34,4.33-5.4,1.75-6.3-4.79-6.3-3-7.28a8.31,8.31,0,0,0,3.57-3.77C439,234.45,440.81,230.37,434.65,227.33Z" transform="translate(432.67 -196.11)"/><path class="cls-4" d="M793.72,198.22c-9.28-4.58-22.58,6.47-22.58,6.47l1.67,6.87s3.2-8.51,10.87-9.41c0,0,6.24-1.06,7.46,1.64,0,0,.83,2-.46,3,0,0-3.35,2-3.5,4.74.31,2.29,2.89,2.79,3,4.59,0,2.37-3,4.83-5.25,1.72-.53-1,.61-6.31.61-7.94,0,0,0-4.26-3.27-4.59,0,0-3.42-.65-3.35,4.59,0,0,0,10.47,1.37,12,.92.57,6.92,3.6,12.09,1.31.69-.41,3-1.35,4.34-5.4,1.74-6.31-4.79-6.31-3-7.29a8.23,8.23,0,0,0,3.57-3.76C798.05,205.34,799.88,201.26,793.72,198.22Z" transform="translate(432.67 -196.11)"/><path class="cls-4" d="M-63.93,242.14c-9.28-4.58-22.58,6.47-22.58,6.47l1.67,6.87S-81.65,247-74,246.07c0,0,6.24-1.06,7.45,1.64,0,0,.84,2-.45,3,0,0-3.35,2-3.5,4.74.31,2.3,2.89,2.79,3,4.59,0,2.37-3,4.83-5.25,1.72-.53-1,.61-6.31.61-7.94,0,0,0-4.26-3.27-4.59,0,0-3.42-.65-3.35,4.59,0,0,0,10.47,1.37,12,.91.57,6.92,3.6,12.09,1.31.69-.41,3-1.35,4.33-5.4,1.75-6.31-4.79-6.31-3-7.29a8.29,8.29,0,0,0,3.57-3.76C-59.6,249.26-57.77,245.19-63.93,242.14Z" transform="translate(432.67 -196.11)"/><path class="cls-4" d="M-4.28,203.22c-9.27-4.58-22.58,6.47-22.58,6.47l1.67,6.87s3.2-8.51,10.88-9.41c0,0,6.23-1.06,7.45,1.64,0,0,.83,2-.46,3,0,0-3.35,2-3.5,4.74.31,2.29,2.89,2.79,3,4.59,0,2.37-3,4.83-5.25,1.72-.53-1,.61-6.31.61-7.94,0,0,0-4.26-3.27-4.59,0,0-3.42-.65-3.34,4.59,0,0,0,10.47,1.36,12,.92.57,6.92,3.6,12.09,1.31.69-.41,3-1.35,4.34-5.4,1.74-6.31-4.79-6.31-3-7.29a8.23,8.23,0,0,0,3.57-3.76C.05,210.34,1.88,206.26-4.28,203.22Z" transform="translate(432.67 -196.11)"/><path class="cls-4" d="M-194,225c-9.27-4.59-22.58,6.46-22.58,6.46l1.67,6.88s3.2-8.51,10.88-9.41c0,0,6.23-1.07,7.45,1.63,0,0,.83,2-.46,3,0,0-3.35,2-3.5,4.75.31,2.29,2.89,2.78,3,4.58,0,2.38-3,4.83-5.25,1.72-.53-1,.61-6.3.61-7.94,0,0,0-4.25-3.27-4.58,0,0-3.42-.66-3.34,4.58,0,0,0,10.48,1.36,12,.92.58,6.92,3.6,12.09,1.31.69-.41,3-1.34,4.34-5.4,1.75-6.3-4.79-6.3-3-7.28a8.3,8.3,0,0,0,3.57-3.77C-189.72,232.08-187.89,228-194,225Z" transform="translate(432.67 -196.11)"/><path class="cls-4" d="M-324.17,207.77c-9.27-4.58-22.58,6.47-22.58,6.47l1.68,6.87s3.19-8.51,10.87-9.41c0,0,6.23-1.06,7.45,1.64,0,0,.84,2-.46,3,0,0-3.34,2-3.49,4.74.3,2.3,2.88,2.79,3,4.59,0,2.37-3,4.83-5.25,1.72-.53-1,.61-6.31.61-7.94,0,0,0-4.26-3.27-4.59,0,0-3.42-.65-3.34,4.59,0,0,0,10.47,1.37,12,.91.57,6.92,3.6,12.09,1.31a8.21,8.21,0,0,0,4.33-5.4c1.75-6.31-4.79-6.31-3-7.29a8.26,8.26,0,0,0,3.58-3.76C-319.83,214.89-318,210.81-324.17,207.77Z" transform="translate(432.67 -196.11)"/><path class="cls-4" d="M277.32,433.64c-9.27-4.59-22.58,6.46-22.58,6.46l1.67,6.88s3.2-8.51,10.88-9.41c0,0,6.23-1.07,7.45,1.63,0,0,.83,2.05-.46,3,0,0-3.34,2-3.5,4.75.31,2.29,2.89,2.78,3,4.58,0,2.38-3,4.83-5.25,1.72-.53-1,.61-6.3.61-7.94,0,0,0-4.26-3.27-4.58,0,0-3.42-.66-3.34,4.58,0,0,0,10.48,1.36,12,.92.58,6.92,3.6,12.09,1.31.69-.41,3-1.35,4.34-5.4,1.75-6.3-4.79-6.3-3-7.28a8.3,8.3,0,0,0,3.57-3.77C281.66,440.76,283.48,436.68,277.32,433.64Z" transform="translate(432.67 -196.11)"/><path class="cls-4" d="M277.72,370.22c-9.27-4.58-22.58,6.47-22.58,6.47l1.67,6.87s3.2-8.51,10.88-9.41c0,0,6.23-1.06,7.45,1.64,0,0,.83,2-.46,3,0,0-3.35,2-3.5,4.74.31,2.29,2.89,2.79,3,4.59,0,2.37-3,4.83-5.25,1.72-.53-1,.61-6.31.61-7.94,0,0,0-4.26-3.27-4.59,0,0-3.42-.65-3.34,4.59,0,0,0,10.47,1.36,12,.92.57,6.92,3.6,12.09,1.31.69-.41,3-1.35,4.34-5.4,1.74-6.31-4.79-6.31-3-7.29a8.23,8.23,0,0,0,3.57-3.76C282.05,377.34,283.88,373.26,277.72,370.22Z" transform="translate(432.67 -196.11)"/><path class="cls-4" d="M645.78,401.64c-9.27-4.59-22.58,6.46-22.58,6.46l1.67,6.88s3.2-8.51,10.88-9.41c0,0,6.23-1.07,7.45,1.63,0,0,.83,2.05-.46,3,0,0-3.34,2-3.5,4.75.31,2.29,2.89,2.78,3,4.58,0,2.38-3,4.83-5.25,1.72-.53-1,.61-6.3.61-7.94,0,0,0-4.26-3.27-4.58,0,0-3.42-.66-3.34,4.58,0,0,0,10.48,1.36,12,.92.58,6.92,3.6,12.09,1.31.69-.41,3-1.35,4.34-5.4,1.75-6.3-4.79-6.3-3-7.28a8.38,8.38,0,0,0,3.58-3.77C650.12,408.76,651.94,404.68,645.78,401.64Z" transform="translate(432.67 -196.11)"/><path class="cls-4" d="M1004.78,369.64c-9.27-4.59-22.58,6.46-22.58,6.46l1.67,6.88s3.2-8.51,10.88-9.41c0,0,6.23-1.07,7.45,1.63,0,0,.83,2.05-.46,3,0,0-3.34,2-3.5,4.75.31,2.29,2.89,2.78,3,4.58,0,2.38-3,4.83-5.25,1.72-.53-1,.61-6.3.61-7.94,0,0,0-4.26-3.27-4.58,0,0-3.42-.66-3.34,4.58,0,0,0,10.48,1.36,12,.92.58,6.92,3.6,12.09,1.31.69-.41,3-1.35,4.34-5.4,1.75-6.3-4.79-6.3-3-7.28a8.38,8.38,0,0,0,3.58-3.77C1009.12,376.76,1010.94,372.68,1004.78,369.64Z" transform="translate(432.67 -196.11)"/><path class="cls-4" d="M147.2,416.45c-9.27-4.58-22.58,6.47-22.58,6.47l1.68,6.87s3.19-8.51,10.87-9.41c0,0,6.23-1.06,7.45,1.64,0,0,.83,2-.46,3,0,0-3.34,2-3.5,4.74.31,2.29,2.89,2.79,3,4.59,0,2.37-3,4.83-5.25,1.72-.53-1,.61-6.31.61-7.94,0,0,0-4.26-3.27-4.59,0,0-3.42-.65-3.34,4.59,0,0,0,10.47,1.37,12,.91.57,6.91,3.6,12.08,1.31.69-.41,3-1.35,4.34-5.4,1.75-6.31-4.79-6.31-3-7.29a8.26,8.26,0,0,0,3.58-3.76C151.54,423.57,153.36,419.49,147.2,416.45Z" transform="translate(432.67 -196.11)"/><path class="cls-4" d="M143.72,355.22c-9.27-4.58-22.58,6.47-22.58,6.47l1.67,6.87s3.2-8.51,10.88-9.41c0,0,6.23-1.06,7.45,1.64,0,0,.83,2-.46,3,0,0-3.35,2-3.5,4.74.31,2.29,2.89,2.79,3,4.59,0,2.37-3,4.83-5.25,1.72-.53-1,.61-6.31.61-7.94,0,0,0-4.26-3.27-4.59,0,0-3.42-.65-3.34,4.59,0,0,0,10.47,1.36,12,.92.57,6.92,3.6,12.09,1.31.69-.41,3-1.35,4.34-5.4,1.74-6.31-4.79-6.31-3-7.29a8.23,8.23,0,0,0,3.57-3.76C148.05,362.34,149.88,358.26,143.72,355.22Z" transform="translate(432.67 -196.11)"/><path class="cls-4" d="M515.66,384.45c-9.27-4.58-22.58,6.47-22.58,6.47l1.68,6.87s3.19-8.51,10.87-9.41c0,0,6.23-1.06,7.45,1.64,0,0,.84,2-.46,3,0,0-3.34,2-3.49,4.74.3,2.29,2.88,2.79,3,4.59,0,2.37-3,4.83-5.25,1.72-.53-1,.61-6.31.61-7.94,0,0,0-4.26-3.27-4.59,0,0-3.42-.65-3.34,4.59,0,0,0,10.47,1.37,12,.91.57,6.92,3.6,12.09,1.31a8.21,8.21,0,0,0,4.33-5.4c1.75-6.31-4.79-6.31-3-7.29a8.26,8.26,0,0,0,3.58-3.76C520,391.57,521.82,387.49,515.66,384.45Z" transform="translate(432.67 -196.11)"/><path class="cls-4" d="M874.66,352.45c-9.27-4.58-22.58,6.47-22.58,6.47l1.68,6.87s3.19-8.51,10.87-9.41c0,0,6.23-1.06,7.45,1.64,0,0,.84,2-.46,3,0,0-3.34,2-3.49,4.74.3,2.29,2.88,2.79,3,4.59,0,2.37-3,4.83-5.25,1.72-.53-1,.61-6.31.61-7.94,0,0,0-4.26-3.27-4.59,0,0-3.42-.65-3.34,4.59,0,0,0,10.47,1.37,12,.91.57,6.92,3.6,12.09,1.31a8.21,8.21,0,0,0,4.33-5.4c1.75-6.31-4.79-6.31-3-7.29a8.26,8.26,0,0,0,3.58-3.76C879,359.57,880.82,355.49,874.66,352.45Z" transform="translate(432.67 -196.11)"/><path class="cls-4" d="M-113,382.08c-9.28-4.58-22.58,6.47-22.58,6.47l1.67,6.87s3.19-8.51,10.87-9.41c0,0,6.24-1.07,7.45,1.64,0,0,.84,2-.45,3,0,0-3.35,2.05-3.5,4.75.3,2.29,2.89,2.78,3,4.59,0,2.37-3,4.82-5.24,1.71-.53-1,.61-6.3.61-7.94,0,0,0-4.25-3.27-4.58,0,0-3.42-.65-3.35,4.58,0,0,0,10.48,1.37,12,.91.57,6.92,3.6,12.09,1.31.68-.41,3-1.35,4.33-5.41,1.75-6.3-4.79-6.3-3-7.28a8.26,8.26,0,0,0,3.57-3.77C-108.7,389.2-106.87,385.12-113,382.08Z" transform="translate(432.67 -196.11)"/><path class="cls-4" d="M-243.15,364.89c-9.28-4.58-22.58,6.47-22.58,6.47l1.67,6.88s3.2-8.52,10.87-9.42c0,0,6.24-1.06,7.45,1.64,0,0,.84,2.05-.45,3,0,0-3.35,2.05-3.5,4.75.31,2.29,2.89,2.78,3,4.58,0,2.37-3,4.83-5.25,1.72-.53-1,.61-6.3.61-7.94,0,0,0-4.26-3.27-4.58,0,0-3.42-.66-3.35,4.58,0,0,0,10.48,1.37,12,.92.57,6.92,3.6,12.09,1.31.69-.41,3-1.35,4.33-5.4,1.75-6.3-4.78-6.3-3-7.29a8.29,8.29,0,0,0,3.57-3.76C-238.82,372-237,367.94-243.15,364.89Z" transform="translate(432.67 -196.11)"/><path class="cls-4" d="M-223.28,433.22c-9.27-4.58-22.58,6.47-22.58,6.47l1.67,6.87s3.2-8.51,10.88-9.41c0,0,6.23-1.06,7.45,1.64,0,0,.83,2-.46,3,0,0-3.35,2-3.5,4.74.31,2.29,2.89,2.79,3,4.59,0,2.37-3,4.83-5.25,1.72-.53-1,.61-6.31.61-7.94,0,0,0-4.26-3.27-4.59,0,0-3.42-.65-3.34,4.59,0,0,0,10.47,1.36,12,.92.57,6.92,3.6,12.09,1.31.69-.41,3-1.35,4.34-5.4,1.74-6.31-4.79-6.31-3-7.29a8.23,8.23,0,0,0,3.57-3.76C-218.95,440.34-217.12,436.26-223.28,433.22Z" transform="translate(432.67 -196.11)"/><path class="cls-4" d="M-373.27,347.71c-9.27-4.58-22.58,6.47-22.58,6.47l1.67,6.87s3.2-8.51,10.88-9.41c0,0,6.23-1.07,7.45,1.64,0,0,.83,2-.46,3,0,0-3.34,2.05-3.5,4.75.31,2.29,2.89,2.78,3,4.58,0,2.38-3,4.83-5.25,1.72-.53-1,.61-6.3.61-7.94,0,0,0-4.25-3.27-4.58,0,0-3.42-.65-3.34,4.58,0,0,0,10.48,1.37,12,.91.57,6.91,3.6,12.08,1.31.69-.41,3.05-1.35,4.34-5.41,1.75-6.3-4.79-6.3-3-7.28a8.23,8.23,0,0,0,3.58-3.77C-368.93,354.83-367.11,350.75-373.27,347.71Z" transform="translate(432.67 -196.11)"/><path class="cls-4" d="M-257.28,310.22c-9.27-4.58-22.58,6.47-22.58,6.47l1.67,6.87s3.2-8.51,10.88-9.41c0,0,6.23-1.06,7.45,1.64,0,0,.83,2-.46,3,0,0-3.35,2-3.5,4.74.31,2.29,2.89,2.79,3,4.59,0,2.37-3,4.83-5.25,1.72-.53-1,.61-6.31.61-7.94,0,0,0-4.26-3.27-4.59,0,0-3.42-.65-3.34,4.59,0,0,0,10.47,1.36,12,.92.57,6.92,3.6,12.09,1.31.69-.41,3-1.35,4.34-5.4,1.74-6.31-4.79-6.31-3-7.29a8.23,8.23,0,0,0,3.57-3.76C-252.95,317.34-251.12,313.26-257.28,310.22Z" transform="translate(432.67 -196.11)"/><path class="cls-4" d="M163.72,200.22c-9.27-4.58-22.58,6.47-22.58,6.47l1.67,6.87s3.2-8.51,10.88-9.41c0,0,6.23-1.06,7.45,1.64,0,0,.83,2-.46,3,0,0-3.35,2-3.5,4.74.31,2.29,2.89,2.79,3,4.59,0,2.37-3,4.83-5.25,1.72-.53-1,.61-6.31.61-7.94,0,0,0-4.26-3.27-4.59,0,0-3.42-.65-3.34,4.59,0,0,0,10.47,1.36,12,.92.57,6.92,3.6,12.09,1.31.69-.41,3-1.35,4.34-5.4,1.74-6.31-4.79-6.31-3-7.29a8.23,8.23,0,0,0,3.57-3.76C168.05,207.34,169.88,203.26,163.72,200.22Z" transform="translate(432.67 -196.11)"/><path class="cls-4" d="M343.61,357.53C334.33,353,321,364,321,364l1.67,6.87s3.19-8.51,10.87-9.41c0,0,6.24-1.07,7.45,1.64,0,0,.84,2-.45,3,0,0-3.35,2.05-3.5,4.75.3,2.29,2.89,2.78,3,4.58,0,2.38-3,4.83-5.25,1.72-.53-1,.61-6.3.61-7.94,0,0,0-4.25-3.27-4.58,0,0-3.42-.65-3.35,4.58,0,0,0,10.48,1.37,12,.91.57,6.92,3.6,12.09,1.31.68-.41,3-1.35,4.33-5.41,1.75-6.3-4.79-6.3-3-7.28a8.26,8.26,0,0,0,3.57-3.77C347.94,364.65,349.77,360.57,343.61,357.53Z" transform="translate(432.67 -196.11)"/><path class="cls-4" d="M712.07,325.53C702.79,321,689.49,332,689.49,332l1.67,6.87s3.19-8.51,10.87-9.41c0,0,6.24-1.07,7.45,1.64,0,0,.84,2-.45,3,0,0-3.35,2.05-3.5,4.75.3,2.29,2.89,2.78,3,4.58,0,2.38-3,4.83-5.25,1.72-.53-1,.61-6.3.61-7.94,0,0,0-4.25-3.27-4.58,0,0-3.42-.65-3.35,4.58,0,0,0,10.48,1.37,12,.91.57,6.92,3.6,12.09,1.31.68-.41,3-1.35,4.33-5.41,1.75-6.3-4.79-6.3-3-7.28a8.26,8.26,0,0,0,3.57-3.77C716.4,332.65,718.23,328.57,712.07,325.53Z" transform="translate(432.67 -196.11)"/><path class="cls-4" d="M213.49,340.34c-9.28-4.58-22.58,6.47-22.58,6.47l1.67,6.88s3.2-8.52,10.87-9.42c0,0,6.24-1.06,7.46,1.64,0,0,.83,2-.46,3,0,0-3.35,2.05-3.5,4.75.31,2.29,2.89,2.78,3,4.58,0,2.37-3,4.83-5.25,1.72-.53-1,.61-6.3.61-7.94,0,0,0-4.26-3.27-4.58,0,0-3.42-.66-3.35,4.58,0,0,0,10.48,1.37,12,.92.57,6.92,3.6,12.09,1.31.69-.41,3-1.35,4.34-5.4,1.74-6.3-4.79-6.3-3-7.29a8.23,8.23,0,0,0,3.57-3.76C217.82,347.47,219.65,343.39,213.49,340.34Z" transform="translate(432.67 -196.11)"/><path class="cls-4" d="M582,308.34c-9.27-4.58-22.58,6.47-22.58,6.47l1.67,6.88s3.2-8.52,10.88-9.42c0,0,6.23-1.06,7.45,1.64,0,0,.83,2-.46,3,0,0-3.35,2.05-3.5,4.75.31,2.29,2.89,2.78,3,4.58,0,2.37-3,4.83-5.25,1.72-.53-1,.61-6.3.61-7.94,0,0,0-4.26-3.27-4.58,0,0-3.42-.66-3.34,4.58,0,0,0,10.48,1.36,12,.92.57,6.92,3.6,12.09,1.31.69-.41,3-1.35,4.34-5.4,1.74-6.3-4.79-6.3-3-7.29a8.23,8.23,0,0,0,3.57-3.76C586.28,315.47,588.11,311.39,582,308.34Z" transform="translate(432.67 -196.11)"/><path class="cls-4" d="M941,276.34c-9.27-4.58-22.58,6.47-22.58,6.47l1.67,6.88s3.2-8.52,10.88-9.42c0,0,6.23-1.06,7.45,1.64,0,0,.83,2-.46,3,0,0-3.35,2.05-3.5,4.75.31,2.29,2.89,2.78,3,4.58,0,2.37-3,4.83-5.25,1.72-.53-1,.61-6.3.61-7.94,0,0,0-4.26-3.27-4.58,0,0-3.42-.66-3.34,4.58,0,0,0,10.48,1.36,12,.92.57,6.92,3.6,12.09,1.31.69-.41,3-1.35,4.34-5.4,1.74-6.3-4.79-6.3-3-7.29a8.23,8.23,0,0,0,3.57-3.76C945.28,283.47,947.11,279.39,941,276.34Z" transform="translate(432.67 -196.11)"/><path class="cls-4" d="M83.37,323.16c-9.27-4.58-22.58,6.46-22.58,6.46l1.67,6.88s3.2-8.51,10.88-9.41c0,0,6.23-1.07,7.45,1.63,0,0,.83,2-.46,3,0,0-3.35,2.05-3.5,4.75.31,2.29,2.89,2.78,3,4.58,0,2.38-3,4.83-5.25,1.72-.53-1,.61-6.3.61-7.94,0,0,0-4.25-3.27-4.58,0,0-3.42-.66-3.34,4.58,0,0,0,10.48,1.36,12,.92.57,6.92,3.6,12.09,1.3.69-.4,3-1.34,4.34-5.4,1.75-6.3-4.79-6.3-3-7.28a8.21,8.21,0,0,0,3.57-3.77C87.7,330.28,89.53,326.2,83.37,323.16Z" transform="translate(432.67 -196.11)"/><path class="cls-4" d="M451.83,291.16c-9.27-4.58-22.58,6.46-22.58,6.46l1.67,6.88s3.2-8.51,10.88-9.41c0,0,6.23-1.07,7.45,1.63,0,0,.83,2-.46,3,0,0-3.34,2.05-3.5,4.75.31,2.29,2.89,2.78,3,4.58,0,2.38-3,4.83-5.25,1.72-.53-1,.61-6.3.61-7.94,0,0,0-4.25-3.27-4.58,0,0-3.42-.66-3.34,4.58,0,0,0,10.48,1.37,12,.91.57,6.91,3.6,12.08,1.3.69-.4,3-1.34,4.34-5.4,1.75-6.3-4.79-6.3-3-7.28a8.23,8.23,0,0,0,3.58-3.77C456.17,298.28,458,294.2,451.83,291.16Z" transform="translate(432.67 -196.11)"/><path class="cls-4" d="M810.83,259.16c-9.27-4.58-22.58,6.47-22.58,6.47l1.67,6.87s3.2-8.51,10.88-9.41c0,0,6.23-1.07,7.45,1.63,0,0,.83,2-.46,3,0,0-3.34,2.05-3.5,4.75.31,2.29,2.89,2.78,3,4.58,0,2.38-3,4.83-5.25,1.72-.53-1,.61-6.3.61-7.94,0,0,0-4.25-3.27-4.58,0,0-3.42-.65-3.34,4.58,0,0,0,10.48,1.36,12,.92.57,6.92,3.6,12.09,1.31.69-.41,3-1.35,4.34-5.41,1.75-6.3-4.79-6.3-3-7.28a8.28,8.28,0,0,0,3.58-3.77C815.17,266.28,817,262.2,810.83,259.16Z" transform="translate(432.67 -196.11)"/><path class="cls-4" d="M-176.86,288.79c-9.28-4.59-22.58,6.46-22.58,6.46l1.67,6.88s3.19-8.51,10.87-9.41c0,0,6.23-1.07,7.45,1.63,0,0,.84,2-.46,3,0,0-3.34,2.05-3.49,4.75.3,2.29,2.89,2.78,3,4.58,0,2.38-3,4.83-5.24,1.72-.54-1,.6-6.3.6-7.94,0,0,0-4.25-3.26-4.58,0,0-3.43-.66-3.35,4.58,0,0,0,10.48,1.37,12,.91.58,6.92,3.61,12.09,1.31.68-.4,3-1.34,4.33-5.4,1.75-6.3-4.79-6.3-3-7.28a8.26,8.26,0,0,0,3.57-3.77C-172.53,295.91-170.71,291.83-176.86,288.79Z" transform="translate(432.67 -196.11)"/><path class="cls-4" d="M-307,271.6c-9.28-4.58-22.58,6.47-22.58,6.47l1.67,6.87s3.19-8.51,10.87-9.41c0,0,6.24-1.06,7.45,1.64,0,0,.84,2.05-.45,3,0,0-3.35,2-3.5,4.74.3,2.3,2.89,2.79,3,4.59,0,2.37-3,4.83-5.24,1.72-.53-1,.61-6.31.61-7.94,0,0,0-4.26-3.27-4.59,0,0-3.42-.65-3.35,4.59,0,0,0,10.47,1.37,12,.91.57,6.92,3.6,12.09,1.31a8.21,8.21,0,0,0,4.33-5.4c1.75-6.31-4.79-6.31-3-7.29a8.29,8.29,0,0,0,3.57-3.76C-302.65,278.72-300.82,274.65-307,271.6Z" transform="translate(432.67 -196.11)"/><path class="cls-4" d="M1022,433.47c-9.28-4.59-22.58,6.46-22.58,6.46l1.67,6.88s3.19-8.51,10.87-9.41c0,0,6.24-1.07,7.45,1.63,0,0,.84,2.05-.45,3,0,0-3.35,2.05-3.5,4.75.3,2.29,2.89,2.78,3,4.58,0,2.38-3,4.83-5.24,1.72-.53-1,.61-6.3.61-7.94,0,0,0-4.25-3.27-4.58,0,0-3.42-.66-3.35,4.58,0,0,0,10.48,1.37,12,.91.58,6.92,3.61,12.09,1.31.68-.41,3-1.34,4.33-5.4,1.75-6.3-4.79-6.3-3-7.28a8.31,8.31,0,0,0,3.57-3.77C1026.3,440.59,1028.13,436.51,1022,433.47Z" transform="translate(432.67 -196.11)"/><path class="cls-4" d="M532.85,448.28c-9.28-4.58-22.58,6.47-22.58,6.47l1.67,6.87s3.2-8.51,10.87-9.41c0,0,6.24-1.06,7.45,1.64,0,0,.84,2-.45,3,0,0-3.35,2-3.5,4.74.31,2.3,2.89,2.79,3,4.59,0,2.37-3,4.83-5.25,1.72-.53-1,.61-6.31.61-7.94,0,0,0-4.26-3.27-4.59,0,0-3.42-.65-3.35,4.59,0,0,0,10.47,1.37,12,.92.57,6.92,3.6,12.09,1.31.69-.41,3-1.35,4.33-5.4,1.75-6.31-4.78-6.31-3-7.29a8.29,8.29,0,0,0,3.57-3.76C537.18,455.4,539,451.33,532.85,448.28Z" transform="translate(432.67 -196.11)"/><path class="cls-4" d="M891.85,416.28c-9.28-4.58-22.58,6.47-22.58,6.47l1.67,6.87s3.19-8.51,10.87-9.41c0,0,6.24-1.06,7.45,1.64,0,0,.84,2-.45,3,0,0-3.35,2-3.5,4.74.3,2.3,2.89,2.79,3,4.59,0,2.37-3,4.83-5.25,1.72-.53-1,.61-6.31.61-7.94,0,0,0-4.26-3.27-4.59,0,0-3.42-.65-3.35,4.59,0,0,0,10.47,1.37,12,.91.57,6.92,3.6,12.09,1.31.69-.41,3-1.35,4.33-5.4,1.75-6.31-4.79-6.31-3-7.29a8.29,8.29,0,0,0,3.57-3.76C896.18,423.4,898,419.33,891.85,416.28Z" transform="translate(432.67 -196.11)"/><path class="cls-4" d="M-356.08,411.54c-9.28-4.58-22.58,6.47-22.58,6.47l1.67,6.87s3.19-8.51,10.87-9.41c0,0,6.24-1.06,7.45,1.64,0,0,.84,2-.45,3,0,0-3.35,2.05-3.5,4.75.3,2.29,2.89,2.79,3,4.59,0,2.37-3,4.82-5.24,1.71-.53-1,.61-6.3.61-7.93,0,0,0-4.26-3.27-4.59,0,0-3.42-.65-3.35,4.59,0,0,0,10.47,1.37,12,.91.57,6.92,3.6,12.09,1.31.68-.41,3-1.35,4.33-5.41,1.75-6.3-4.79-6.3-3-7.28a8.26,8.26,0,0,0,3.57-3.77C-351.75,418.66-349.92,414.58-356.08,411.54Z" transform="translate(432.67 -196.11)"/><path class="cls-4" d="M420.72,461.22c-9.27-4.58-22.58,6.47-22.58,6.47l1.67,6.87s3.2-8.51,10.88-9.41c0,0,6.23-1.06,7.45,1.64,0,0,.83,2-.46,3,0,0-3.35,2-3.5,4.74.31,2.29,2.89,2.79,3,4.59,0,2.37-3,4.83-5.25,1.72-.53-1,.61-6.31.61-7.94,0,0,0-4.26-3.27-4.59,0,0-3.42-.65-3.34,4.59,0,0,0,10.47,1.36,12,.92.57,6.92,3.6,12.09,1.31.69-.41,3-1.35,4.34-5.4,1.74-6.31-4.79-6.31-3-7.29a8.23,8.23,0,0,0,3.57-3.76C425.05,468.34,426.88,464.26,420.72,461.22Z" transform="translate(432.67 -196.11)"/><path class="cls-5" d="M-125.42,239.31C-199.95,205.54-306.86,287-306.86,287l13.44,50.66s25.66-62.72,87.36-69.36c0,0,50.1-7.84,59.87,12.07,0,0,6.72,15.07-3.66,22.31,0,0-26.88,15.08-28.11,35,2.45,16.89,23.22,20.51,23.83,33.78,0,17.49-23.83,35.59-42.15,12.67-4.28-7.24,4.88-46.45,4.88-58.51,0,0,0-31.36-26.27-33.77,0,0-27.49-4.83-26.88,33.77,0,0,0,77.2,11,88.66,7.33,4.23,55.59,26.54,97.14,9.65,5.49-3,24.43-9.93,34.82-39.8,14-46.45-38.49-46.45-23.83-53.68s22.61-16.89,28.72-27.75S-75.93,261.74-125.42,239.31Z" transform="translate(432.67 -196.11)"/><path class="cls-6" d="M-141.12,303.06h10.48l11.11,60.05h-9.21l-1.65-10.76h-11l-1.59,10.76h-9.24Zm9.67,42.43-4.22-29.91H-136l-4.26,29.91Zm18.76-42.43h9.21c1.36,0,2.77.05,4.22.14a28.38,28.38,0,0,1,4.26.6,17.1,17.1,0,0,1,3.93,1.37,10.22,10.22,0,0,1,3.24,2.39,10.79,10.79,0,0,1,2.21,3.76,14.9,14.9,0,0,1,.85,5.35v2.91a13.18,13.18,0,0,1-.71,4.4,12.86,12.86,0,0,1-1.79,3.55,11.2,11.2,0,0,1-2.57,2.53,8.75,8.75,0,0,1-3,1.34v.28a9.67,9.67,0,0,1,6.72,4.25,15.47,15.47,0,0,1,2.28,8.76v3.05a19.42,19.42,0,0,1-.74,5.7,12.7,12.7,0,0,1-2,4.11,11.36,11.36,0,0,1-3.09,2.78,16.45,16.45,0,0,1-3.94,1.72,27.84,27.84,0,0,1-4.57.85c-1.62.14-3.28.21-5,.21h-9.57Zm10.69,25.7a12.46,12.46,0,0,0,3.34-.42A7,7,0,0,0-96.09,327a6.1,6.1,0,0,0,1.65-2.43,9.8,9.8,0,0,0,.6-3.62v-2.46a14.43,14.43,0,0,0-.43-3.73,6.66,6.66,0,0,0-1.4-2.74,5.8,5.8,0,0,0-2.53-1.69,10.57,10.57,0,0,0-3.8-.59h-1.76v19.05Zm.84,28a11,11,0,0,0,3.31-.46,6.92,6.92,0,0,0,2.57-1.47,6.63,6.63,0,0,0,1.65-2.57,10.1,10.1,0,0,0,.6-3.66V344a14.88,14.88,0,0,0-.43-3.73,6.42,6.42,0,0,0-1.4-2.74,5.88,5.88,0,0,0-2.5-1.69,10.56,10.56,0,0,0-3.8-.6h-2.6v21.59Zm39.61,6.85a22.16,22.16,0,0,1-3.12-.24,11.72,11.72,0,0,1-3.34-.95,12.82,12.82,0,0,1-3.2-2.07,13.41,13.41,0,0,1-2.71-3.59,21.54,21.54,0,0,1-1.86-5.45,37.29,37.29,0,0,1-.71-7.77V322.29a36.42,36.42,0,0,1,.71-7.73,20.93,20.93,0,0,1,1.93-5.42,12.22,12.22,0,0,1,2.71-3.51,11.6,11.6,0,0,1,3.2-2,12.73,12.73,0,0,1,3.34-.92,24.32,24.32,0,0,1,3-.21,23.1,23.1,0,0,1,3,.21,11.79,11.79,0,0,1,3.27.85,11.11,11.11,0,0,1,3.2,1.93A11.66,11.66,0,0,1-49.38,309a20.23,20.23,0,0,1,1.9,5.45,35.92,35.92,0,0,1,.74,7.84v21.27a35.14,35.14,0,0,1-.74,7.7,22.59,22.59,0,0,1-1.94,5.45,12.58,12.58,0,0,1-2.77,3.59,14,14,0,0,1-3.2,2.1,12.18,12.18,0,0,1-3.24,1A20.08,20.08,0,0,1-61.55,363.63Zm0-6.85a5.34,5.34,0,0,0,2.32-.46,3.55,3.55,0,0,0,1.66-1.58,8.79,8.79,0,0,0,1-2.95,25.38,25.38,0,0,0,.35-4.68V319.8a27,27,0,0,0-.35-4.82,9.43,9.43,0,0,0-1-3.1,3.75,3.75,0,0,0-1.66-1.68,5.06,5.06,0,0,0-2.32-.49,5.43,5.43,0,0,0-2.39.49,3.89,3.89,0,0,0-1.68,1.68,9.62,9.62,0,0,0-1,3.1A30.63,30.63,0,0,0-67,319.8v27.31a28.73,28.73,0,0,0,.32,4.68,9,9,0,0,0,1,2.95,3.69,3.69,0,0,0,1.68,1.58A5.73,5.73,0,0,0-61.55,356.78Zm24.22-53.72h9.17v44a33.27,33.27,0,0,0,.28,4.67,9.5,9.5,0,0,0,.88,3,3.93,3.93,0,0,0,1.58,1.58,5.4,5.4,0,0,0,2.32.46,5.37,5.37,0,0,0,2.32-.46,3.82,3.82,0,0,0,1.66-1.58,8.88,8.88,0,0,0,1-3,25.34,25.34,0,0,0,.35-4.67v-44h9.07v41.59a34.66,34.66,0,0,1-.7,7.52,20.06,20.06,0,0,1-1.86,5.24A11.21,11.21,0,0,1-14,360.75a11.73,11.73,0,0,1-3.09,1.9,12.26,12.26,0,0,1-3.16.81,25.67,25.67,0,0,1-2.89.17,25.63,25.63,0,0,1-2.88-.17,12.36,12.36,0,0,1-3.13-.81,12.25,12.25,0,0,1-3.06-1.9,11.43,11.43,0,0,1-2.63-3.34,19.76,19.76,0,0,1-1.87-5.2,37.26,37.26,0,0,1-.66-7.56ZM7.9,310.23H-1.77v-7.17H26.64v7.17H17v52.88H7.9ZM50,303.06h9.17v44a33.27,33.27,0,0,0,.28,4.67,9.5,9.5,0,0,0,.88,3,3.93,3.93,0,0,0,1.58,1.58,5.4,5.4,0,0,0,2.32.46,5.34,5.34,0,0,0,2.32-.46,3.82,3.82,0,0,0,1.66-1.58,8.88,8.88,0,0,0,1-3,25.34,25.34,0,0,0,.35-4.67v-44h9.07v41.59a34.66,34.66,0,0,1-.7,7.52,20.06,20.06,0,0,1-1.86,5.24,11.35,11.35,0,0,1-2.67,3.34,11.94,11.94,0,0,1-3.1,1.9,12.26,12.26,0,0,1-3.16.81,24.57,24.57,0,0,1-5.77,0,11.34,11.34,0,0,1-6.19-2.71,11.43,11.43,0,0,1-2.63-3.34,19.76,19.76,0,0,1-1.87-5.2,37.26,37.26,0,0,1-.66-7.56Zm37.36,47.88a27.68,27.68,0,0,1,.21-3.55c.16-1.1.4-2.28.7-3.55h7.07v2.92a28.67,28.67,0,0,0,.28,4.29,11,11,0,0,0,1,3.16,5,5,0,0,0,1.83,1.94,5.81,5.81,0,0,0,2.81.63,5.31,5.31,0,0,0,4-1.41,5.85,5.85,0,0,0,1.37-4.18,14.53,14.53,0,0,0-.21-2.57,9.63,9.63,0,0,0-.67-2.35,14.62,14.62,0,0,0-1.27-2.43,30.15,30.15,0,0,0-2.07-2.88l-9.49-11.29a28.49,28.49,0,0,1-3.91-6.5,18.24,18.24,0,0,1-1.37-7,15.89,15.89,0,0,1,.92-5.49,12.2,12.2,0,0,1,2.7-4.28,11.87,11.87,0,0,1,4.33-2.82,16,16,0,0,1,5.87-1,16.91,16.91,0,0,1,6.61,1.13,11.24,11.24,0,0,1,4.25,2.95,10.44,10.44,0,0,1,2.22,4.11,16.1,16.1,0,0,1,.67,4.54,19.25,19.25,0,0,1-.32,3.59c-.19,1.07-.41,2.27-.67,3.58h-7v-2.85a15.73,15.73,0,0,0-1.37-7.31,4.69,4.69,0,0,0-4.47-2.56,4.84,4.84,0,0,0-3.83,1.44,5.45,5.45,0,0,0-1.26,3.79,13.28,13.28,0,0,0,.17,2.29,11.72,11.72,0,0,0,.56,1.9,13.48,13.48,0,0,0,.92,1.65c.35.54.75,1.1,1.19,1.69l10.59,12.79a36.93,36.93,0,0,1,4.43,7.25,17.62,17.62,0,0,1,1.54,7.31,15.47,15.47,0,0,1-1,5.76,11.56,11.56,0,0,1-2.85,4.36,12.86,12.86,0,0,1-4.5,2.78,17.46,17.46,0,0,1-5.94.95,18.16,18.16,0,0,1-6.78-1.09,11.65,11.65,0,0,1-4.29-2.88A10.51,10.51,0,0,1,88,355.62,17.49,17.49,0,0,1,87.36,350.94Z" transform="translate(432.67 -196.11)"/></svg>