<svg xmlns="http://www.w3.org/2000/svg" xmlns:xlink="http://www.w3.org/1999/xlink" viewBox="0 0 59.19 54.98"><defs><style>.cls-1{fill:url(#linear-gradient);}</style><linearGradient id="linear-gradient" x1="37.96" y1="146.3" x2="37.96" y2="91.32" gradientTransform="matrix(1, 0, 0, -1, -8.36, 146.3)" gradientUnits="userSpaceOnUse"><stop offset="0" stop-color="#4e5078"/><stop offset="0.52" stop-color="#694185"/><stop offset="1" stop-color="#a93270"/></linearGradient></defs><g id="Layer_2" data-name="Layer 2"><g id="Layer_1-2" data-name="Layer 1"><path class="cls-1" d="M49.49,2.27C29.16-7.06,0,15.43,0,15.43l3.67,14s7-17.33,23.82-19.17c0,0,13.67-2.16,16.33,3.34,0,0,1.84,4.16-1,6.16,0,0-7.33,4.17-7.66,9.67.67,4.66,6.33,5.66,6.5,9.33,0,4.83-6.5,9.83-11.5,3.5-1.17-2,1.33-12.83,1.33-16.17,0,0,0-8.66-7.16-9.33,0,0-7.5-1.33-7.33,9.33,0,0,0,21.33,3,24.5,2,1.17,15.16,7.33,26.49,2.67,1.5-.84,6.66-2.75,9.5-11,3.83-12.83-10.5-12.83-6.5-14.83a17.45,17.45,0,0,0,7.83-7.67C59,16.76,63,8.46,49.49,2.27Z"/></g></g></svg>