<svg id="Layer_1" data-name="Layer 1" xmlns="http://www.w3.org/2000/svg" xmlns:xlink="http://www.w3.org/1999/xlink" viewBox="0 0 160.36 148.96"><defs><style>.cls-1{fill:url(#linear-gradient);}</style><linearGradient id="linear-gradient" x1="315.09" y1="506.68" x2="315.09" y2="357.72" gradientTransform="matrix(1, 0, 0, -1, -8.36, 867.05)" gradientUnits="userSpaceOnUse"><stop offset="0" stop-color="#4e5078"/><stop offset="0.52" stop-color="#694185"/><stop offset="1" stop-color="#a93270"/></linearGradient></defs><path class="cls-1" d="M360.64,366.52c-55.08-25.28-134.09,35.67-134.09,35.67l9.93,37.92s19-46.95,64.56-51.92c0,0,37-5.87,44.25,9,0,0,5,11.29-2.71,16.7,0,0-19.87,11.29-20.77,26.19,1.81,12.64,17.16,15.35,17.61,25.28,0,13.09-17.61,26.64-31.15,9.48-3.16-5.42,3.61-34.76,3.61-43.79,0,0,0-23.48-19.42-25.28,0,0-20.31-3.61-19.86,25.28,0,0,0,57.79,8.13,66.37,5.41,3.16,41.08,19.86,71.78,7.22,4.06-2.26,18.06-7.44,25.73-29.8,10.39-34.76-28.44-34.76-17.6-40.18s16.7-12.64,21.22-20.77S397.21,383.3,360.64,366.52Z" transform="translate(-226.55 -360.38)"/></svg>