<svg id="Layer_1" data-name="Layer 1" xmlns="http://www.w3.org/2000/svg" viewBox="0 0 217 199"><defs><style>.cls-1{fill:#1d1b27;}</style></defs><path class="cls-1" d="M363.16,337.4c-74.54-33.78-181.45,47.65-181.45,47.65l13.44,50.66s25.66-62.73,87.36-69.36c0,0,50.1-7.84,59.87,12.06,0,0,6.72,15.08-3.66,22.32,0,0-26.88,15.08-28.1,35,2.44,16.89,23.21,20.51,23.82,33.78,0,17.49-23.82,35.58-42.15,12.66-4.28-7.24,4.89-46.44,4.89-58.5,0,0,0-31.37-26.27-33.78,0,0-27.49-4.82-26.88,33.78,0,0,0,77.2,11,88.66,7.33,4.22,55.6,26.54,97.14,9.65,5.5-3,24.44-9.93,34.82-39.81,14-46.44-38.49-46.44-23.82-53.68s22.6-16.89,28.71-27.74S412.64,359.82,363.16,337.4Z" transform="translate(-181.71 -329.19)"/></svg>