<svg id="Layer_1" data-name="Layer 1" xmlns="http://www.w3.org/2000/svg" xmlns:xlink="http://www.w3.org/1999/xlink" viewBox="0 0 716.55 625.2"><defs><style>.cls-1,.cls-2{fill:none;}.cls-2{clip-path:url(#clip-path);}.cls-3{clip-path:url(#clip-path-2);}.cls-4{fill:#1d1b27;fill-opacity:0.5;opacity:0.39;}</style><clipPath id="clip-path"><rect class="cls-1" x="7.11" y="216.86" width="592.83" height="448.76"/></clipPath><clipPath id="clip-path-2" transform="translate(19.95 -136.47)"><rect class="cls-2" x="7.11" y="216.86" width="592.83" height="448.76"/></clipPath></defs><g class="cls-3"><path class="cls-4" d="M457.73,222.14c-37.65-78.44-180.25-85.67-180.25-85.67l-23.61,50.28s63.68-33.27,118.45,3.62c0,0,46.14,28,40.52,50.8,0,0-4.81,16.82-18.21,15.58,0,0-32.17-6.19-46.74,9.11-9.53,15.36,4.92,32.53-3.64,43.7-11.93,14.18-43.67,12.53-43-18.61,1.45-8.8,35.66-34.3,43.88-44.08,0,0,21.4-25.43,1.65-45.38,0,0-19.09-22.75-44.93,9,0,0-52.66,62.6-51.52,79.42,3.09,8.45,27.17,59.6,72.52,74.37,6.53,1.32,26.67,8.69,55.5-8.42,43.12-28,.34-64,17.22-59.84s29.92,1.8,42.3-2.82S482.73,274.23,457.73,222.14Z" transform="translate(19.95 -136.47)"/><path class="cls-4" d="M409.3,476.22c-30.78-81.39-172.23-100.84-172.23-100.84l-27.84,48.07s66.3-27.68,117.7,13.78c0,0,43.57,31.82,36,54.08,0,0-6.24,16.36-19.48,14,0,0-31.52-8.93-47.35,5.07-10.81,14.49,2.1,32.83-7.38,43.23-13.1,13.1-44.58,8.73-41.2-22.23,2.2-8.64,38.47-31.12,47.5-40.16,0,0,23.5-23.49,5.54-45.07,0,0-17.07-24.3-45.53,5.08,0,0-57.84,57.84-58.15,74.7,2.35,8.68,22,61.71,65.86,80.32,6.4,1.88,25.83,10.95,56-3.62,45.36-24.22,5.83-63.75,22.29-58.14s29.66,4.35,42.39.82S429.73,530.25,409.3,476.22Z" transform="translate(19.95 -136.47)"/><path class="cls-4" d="M214.14,320.08C183.36,238.69,41.91,219.24,41.91,219.24L14.07,267.31s66.3-27.68,117.7,13.78c0,0,43.57,31.82,36,54.08,0,0-6.24,16.36-19.48,14,0,0-31.52-8.93-47.35,5.07-10.82,14.49,2.1,32.83-7.38,43.23-13.1,13.1-44.59,8.73-41.21-22.23,2.21-8.64,38.47-31.12,47.51-40.15,0,0,23.5-23.5,5.54-45.08,0,0-17.07-24.3-45.53,5.08,0,0-57.84,57.84-58.15,74.7,2.35,8.68,22,61.71,65.86,80.32,6.4,1.88,25.83,10.95,56-3.62,45.36-24.22,5.83-63.75,22.28-58.14s29.66,4.35,42.4.82S234.57,374.11,214.14,320.08Z" transform="translate(19.95 -136.47)"/><path class="cls-4" d="M605.49,627.16c-30.78-81.38-172.23-100.83-172.23-100.83L405.41,574.4s66.31-27.69,117.71,13.77c0,0,43.57,31.82,36,54.09,0,0-6.24,16.35-19.48,14,0,0-31.52-8.93-47.35,5.06-10.82,14.49,2.1,32.84-7.38,43.24-13.1,13.1-44.59,8.73-41.21-22.23,2.21-8.64,38.47-31.12,47.51-40.16,0,0,23.5-23.49,5.54-45.07,0,0-17.07-24.3-45.53,5.08,0,0-57.84,57.84-58.15,74.7,2.35,8.68,21.95,61.71,65.86,80.32,6.4,1.88,25.83,11,56-3.62,45.36-24.22,5.83-63.76,22.28-58.14s29.66,4.35,42.4.82S625.92,681.2,605.49,627.16Z" transform="translate(19.95 -136.47)"/><path class="cls-4" d="M687.38,388.09c-37.65-78.44-180.24-85.67-180.24-85.67L483.52,352.7S547.2,319.42,602,356.32c0,0,46.14,28,40.52,50.79,0,0-4.81,16.83-18.2,15.58,0,0-32.18-6.19-46.75,9.11-9.53,15.37,4.92,32.53-3.63,43.71-11.94,14.18-43.68,12.53-43-18.61,1.45-8.8,35.66-34.3,43.89-44.08,0,0,21.39-25.43,1.64-45.39,0,0-19.09-22.74-44.92,9,0,0-52.66,62.59-51.52,79.42,3.09,8.44,27.16,59.6,72.51,74.37,6.53,1.32,26.67,8.69,55.51-8.42,43.12-28,.33-64,17.21-59.84s29.93,1.79,42.31-2.82S712.38,440.17,687.38,388.09Z" transform="translate(19.95 -136.47)"/><path class="cls-4" d="M187.43,577.21C149.78,498.77,7.18,491.54,7.18,491.54l-23.61,50.28S47.25,508.55,102,545.44c0,0,46.15,28,40.53,50.79,0,0-4.81,16.83-18.21,15.59,0,0-32.17-6.2-46.74,9.1-9.53,15.37,4.91,32.53-3.64,43.71C62,678.81,30.28,677.16,31,646c1.45-8.8,35.65-34.3,43.88-44.08,0,0,21.4-25.43,1.65-45.38,0,0-19.09-22.75-44.93,9,0,0-52.66,62.59-51.52,79.42,3.09,8.45,27.17,59.6,72.52,74.37,6.53,1.32,26.67,8.69,55.5-8.42,43.12-28,.34-64,17.22-59.84s29.92,1.79,42.3-2.82S212.43,629.3,187.43,577.21Z" transform="translate(19.95 -136.47)"/></g></svg>