<svg width="161" height="149" viewBox="0 0 161 149" fill="none" xmlns="http://www.w3.org/2000/svg">
<path d="M134.087 6.14144C79.0072 -19.1409 0 41.8076 0 41.8076L9.93233 79.731C9.93233 79.731 28.8941 32.7782 74.4925 27.812C74.4925 27.812 111.513 21.9429 118.737 36.8414C118.737 36.8414 123.703 48.1281 116.028 53.5458C116.028 53.5458 96.1631 64.8325 95.2601 79.731C97.066 92.3722 112.416 95.081 112.867 105.013C112.867 118.106 95.2601 131.65 81.716 114.494C78.5557 109.077 85.3278 79.731 85.3278 70.7016C85.3278 70.7016 85.3278 47.2252 65.9146 45.4193C65.9146 45.4193 45.5984 41.8076 46.0499 70.7016C46.0499 70.7016 46.0499 128.49 54.1764 137.068C59.594 140.228 95.2601 156.932 125.96 144.291C130.023 142.034 144.019 136.855 151.694 114.494C162.078 79.731 123.251 79.731 134.087 74.3134C144.922 68.8957 150.791 61.6722 155.306 53.5458C159.82 45.4193 170.656 22.9272 134.087 6.14144Z" fill="url(#paint0_linear)"/>
<defs>
<linearGradient id="paint0_linear" x1="80.182" y1="0" x2="80.182" y2="148.957" gradientUnits="userSpaceOnUse">
<stop stop-color="#4D5078"/>
<stop offset="0.520833" stop-color="#694184"/>
<stop offset="1" stop-color="#A9316F"/>
</linearGradient>
</defs>
</svg>
