<?xml version="1.0" encoding="utf-8"?>
<!-- Generator: Adobe Illustrator 25.4.1, SVG Export Plug-In . SVG Version: 6.00 Build 0)  -->
<svg version="1.1" id="Layer_1" xmlns="http://www.w3.org/2000/svg" xmlns:xlink="http://www.w3.org/1999/xlink" x="0px" y="0px"
	 viewBox="0 0 595.3 841.9" style="enable-background:new 0 0 595.3 841.9;" xml:space="preserve">
<style type="text/css">
	.st0{fill:url(#SVGID_1_);}
</style>
<linearGradient id="SVGID_1_" gradientUnits="userSpaceOnUse" x1="302.7305" y1="468.2203" x2="302.7305" y2="378.2203" gradientTransform="matrix(1 0 0 -1 -8.362 867.055)">
	<stop  offset="0" style="stop-color:#4E5078"/>
	<stop  offset="0.5208" style="stop-color:#694185"/>
	<stop  offset="1" style="stop-color:#A93270"/>
</linearGradient>
<path class="st0" d="M324.6,402.5c-30.9-15.3-75.3,21.5-75.3,21.5l5.6,22.9c0,0,10.6-28.4,36.2-31.4c0,0,20.8-3.5,24.8,5.5
	c0,0,2.8,6.8-1.5,10.1c0,0-11.1,6.8-11.7,15.8c1,7.6,9.6,9.3,9.9,15.3c0,7.9-9.9,16.1-17.5,5.7c-1.8-3.3,2-21,2-26.5
	c0,0,0-14.2-10.9-15.3c0,0-11.4-2.2-11.1,15.3c0,0,0,34.9,4.6,40.1c3,1.9,23.1,12,40.3,4.4c2.3-1.4,10.1-4.5,14.4-18
	c5.8-21-16-21-9.9-24.3c6.1-3.3,9.4-7.6,11.9-12.5C339.1,426.3,345.1,412.7,324.6,402.5z"/>
</svg>
