<svg id="Layer_1" data-name="Layer 1" xmlns="http://www.w3.org/2000/svg" xmlns:xlink="http://www.w3.org/1999/xlink" viewBox="0 0 1440 268"><defs><style>.cls-1{fill:none;}.cls-2{clip-path:url(#clip-path);}.cls-3{fill:url(#linear-gradient);}.cls-4{fill:#1d1b27;fill-opacity:0.5;}</style><clipPath id="clip-path" transform="translate(302.57 -338.74)"><rect class="cls-1" x="-302.57" y="338.74" width="1440" height="268"/></clipPath><linearGradient id="linear-gradient" x1="1031.02" y1="528.32" x2="1031.02" y2="260.32" gradientTransform="translate(1751.02 528.32) rotate(180)" gradientUnits="userSpaceOnUse"><stop offset="0" stop-color="#4e5078"/><stop offset="0.52" stop-color="#694185"/><stop offset="1" stop-color="#a93270"/></linearGradient></defs><g class="cls-2"><rect class="cls-3" width="1440" height="268"/><path class="cls-4" d="M376.83,360.87c-19.39-8.75-47.21,12.34-47.21,12.34l3.49,13.13s6.68-16.26,22.74-18c0,0,13-2,15.58,3.12,0,0,1.74,3.91-1,5.78,0,0-7,3.91-7.31,9.07.64,4.37,6,5.31,6.2,8.75,0,4.53-6.2,9.22-11,3.28-1.11-1.88,1.27-12,1.27-15.16,0,0,0-8.12-6.83-8.75,0,0-7.16-1.25-7,8.75,0,0,0,20,2.86,23,1.91,1.09,14.47,6.88,25.28,2.5,1.43-.78,6.36-2.57,9.06-10.31,3.66-12-10-12-6.2-13.91a16.41,16.41,0,0,0,7.47-7.19C385.89,374.46,389.71,366.68,376.83,360.87Z" transform="translate(302.57 -338.74)"/></g><path class="cls-4" d="M393.09,459.05c-19.39-8.75-47.21,12.35-47.21,12.35l3.5,13.12s6.67-16.25,22.73-18c0,0,13-2,15.58,3.13,0,0,1.75,3.91-1,5.78,0,0-7,3.91-7.31,9.06.64,4.38,6,5.32,6.2,8.75,0,4.54-6.2,9.22-11,3.29-1.11-1.88,1.27-12,1.27-15.16,0,0,0-8.13-6.83-8.75,0,0-7.15-1.25-7,8.75,0,0,0,20,2.87,23,1.9,1.09,14.46,6.87,25.27,2.5,1.43-.78,6.36-2.58,9.06-10.31,3.66-12-10-12-6.2-13.91a16.51,16.51,0,0,0,7.47-7.19C402.15,472.65,406,464.86,393.09,459.05Z" transform="translate(302.57 -338.74)"/><path class="cls-4" d="M518.65,445.87c-19.4-8.75-47.22,12.34-47.22,12.34l3.5,13.13s6.68-16.26,22.73-18c0,0,13-2,15.58,3.12,0,0,1.75,3.91-1,5.78,0,0-7,3.91-7.32,9.07.64,4.37,6,5.31,6.2,8.75,0,4.53-6.2,9.22-11,3.28-1.12-1.88,1.27-12,1.27-15.16,0,0,0-8.13-6.84-8.75,0,0-7.15-1.25-7,8.75,0,0,0,20,2.86,23,1.91,1.09,14.46,6.88,25.27,2.5,1.43-.78,6.36-2.57,9.07-10.31,3.65-12-10-12-6.2-13.91a16.46,16.46,0,0,0,7.47-7.19C527.71,459.46,531.52,451.67,518.65,445.87Z" transform="translate(302.57 -338.74)"/><path class="cls-4" d="M748.88,398c-19.39-8.75-47.21,12.34-47.21,12.34l3.5,13.13s6.67-16.25,22.73-18c0,0,13-2,15.58,3.12,0,0,1.75,3.91-1,5.78,0,0-7,3.91-7.31,9.07.64,4.37,6,5.31,6.2,8.75,0,4.53-6.2,9.22-11,3.28-1.11-1.88,1.27-12,1.27-15.16,0,0,0-8.12-6.83-8.75,0,0-7.15-1.25-7,8.75,0,0,0,20,2.87,23,1.9,1.1,14.46,6.88,25.27,2.5,1.43-.78,6.36-2.57,9.06-10.31,3.66-12-10-12-6.2-13.91a16.36,16.36,0,0,0,7.47-7.19C757.94,411.57,761.76,403.79,748.88,398Z" transform="translate(302.57 -338.74)"/><path class="cls-4" d="M1107.88,366c-19.39-8.75-47.21,12.34-47.21,12.34l3.5,13.13s6.67-16.25,22.73-18c0,0,13-2,15.58,3.12,0,0,1.75,3.91-1,5.78,0,0-7,3.91-7.31,9.07.64,4.37,6,5.31,6.2,8.75,0,4.53-6.2,9.22-11,3.28-1.11-1.88,1.27-12,1.27-15.16,0,0,0-8.12-6.83-8.75,0,0-7.15-1.25-7,8.75,0,0,0,20,2.87,23,1.9,1.1,14.46,6.88,25.27,2.5,1.43-.78,6.36-2.57,9.06-10.31,3.66-12-10-12-6.2-13.91a16.36,16.36,0,0,0,7.47-7.19C1116.94,379.57,1120.76,371.79,1107.88,366Z" transform="translate(302.57 -338.74)"/><path class="cls-4" d="M250.3,389.2c-19.39-8.75-47.21,12.34-47.21,12.34l3.5,13.13s6.67-16.25,22.73-18c0,0,13-2,15.58,3.12,0,0,1.75,3.91-1,5.78,0,0-7,3.91-7.31,9.07.64,4.37,6,5.31,6.2,8.75,0,4.53-6.2,9.22-11,3.28-1.11-1.88,1.27-12,1.27-15.16,0,0,0-8.12-6.83-8.75,0,0-7.16-1.25-7,8.75,0,0,0,20,2.86,23,1.91,1.1,14.47,6.88,25.28,2.5,1.43-.78,6.36-2.57,9.06-10.31,3.66-12-10-12-6.2-13.91a16.41,16.41,0,0,0,7.47-7.19C259.36,402.79,263.18,395,250.3,389.2Z" transform="translate(302.57 -338.74)"/><path class="cls-4" d="M618.76,380.79c-19.39-8.75-47.21,12.35-47.21,12.35l3.5,13.12s6.67-16.25,22.73-18c0,0,13-2,15.58,3.13,0,0,1.75,3.9-1,5.78,0,0-7,3.91-7.31,9.06.64,4.38,6,5.32,6.2,8.75,0,4.54-6.2,9.22-11,3.28-1.11-1.87,1.27-12,1.27-15.15,0,0,0-8.13-6.83-8.75,0,0-7.16-1.25-7,8.75,0,0,0,20,2.87,23,1.9,1.09,14.46,6.87,25.27,2.5,1.43-.78,6.36-2.58,9.06-10.32,3.66-12-10-12-6.2-13.9a16.51,16.51,0,0,0,7.47-7.19C627.82,394.39,631.64,386.6,618.76,380.79Z" transform="translate(302.57 -338.74)"/><path class="cls-4" d="M977.77,348.79c-19.4-8.75-47.22,12.35-47.22,12.35l3.5,13.12s6.68-16.25,22.73-18c0,0,13-2,15.58,3.13,0,0,1.75,3.9-1,5.78,0,0-7,3.91-7.32,9.06.64,4.38,6,5.32,6.2,8.75,0,4.54-6.2,9.22-11,3.28-1.11-1.87,1.28-12,1.28-15.15,0,0,0-8.13-6.84-8.75,0,0-7.15-1.25-7,8.75,0,0,0,20,2.86,23,1.91,1.09,14.46,6.87,25.27,2.5,1.43-.78,6.36-2.58,9.06-10.32,3.66-12-10-12-6.19-13.9a16.56,16.56,0,0,0,7.47-7.19C986.83,362.39,990.64,354.6,977.77,348.79Z" transform="translate(302.57 -338.74)"/><path class="cls-4" d="M-36.33,472.22c-19.39-8.75-47.21,12.34-47.21,12.34L-80,497.69s6.68-16.25,22.74-18c0,0,13-2,15.58,3.13,0,0,1.74,3.9-1,5.78,0,0-7,3.9-7.31,9.06.64,4.38,6,5.31,6.2,8.75,0,4.53-6.2,9.22-11,3.28-1.11-1.87,1.27-12,1.27-15.16,0,0,0-8.12-6.83-8.75,0,0-7.16-1.25-7,8.75,0,0,0,20,2.86,23,1.91,1.1,14.47,6.88,25.28,2.5,1.43-.78,6.36-2.57,9.06-10.31,3.66-12-10-12-6.2-13.91a16.44,16.44,0,0,0,7.47-7.18C-27.27,485.81-23.45,478-36.33,472.22Z" transform="translate(302.57 -338.74)"/><path class="cls-4" d="M488.65,363.61c-19.4-8.75-47.22,12.34-47.22,12.34l3.5,13.13s6.68-16.25,22.73-18c0,0,13-2,15.58,3.12,0,0,1.75,3.91-.95,5.78,0,0-7,3.91-7.32,9.07.64,4.37,6,5.31,6.2,8.75,0,4.53-6.2,9.22-11,3.28-1.12-1.88,1.27-12,1.27-15.16,0,0,0-8.12-6.84-8.75,0,0-7.15-1.25-7,8.75,0,0,0,20,2.86,23,1.91,1.1,14.46,6.88,25.27,2.5,1.43-.78,6.36-2.57,9.07-10.31,3.65-12-10-12-6.2-13.91a16.46,16.46,0,0,0,7.47-7.19C497.71,377.2,501.52,369.42,488.65,363.61Z" transform="translate(302.57 -338.74)"/><path class="cls-4" d="M850.65,353.87c-19.4-8.75-47.22,12.34-47.22,12.34l3.5,13.13s6.68-16.26,22.73-18c0,0,13-2,15.58,3.12,0,0,1.75,3.91-1,5.78,0,0-7,3.91-7.31,9.07.63,4.37,6,5.31,6.2,8.75,0,4.53-6.2,9.22-11,3.28-1.12-1.88,1.27-12,1.27-15.16,0,0,0-8.12-6.84-8.75,0,0-7.15-1.25-7,8.75,0,0,0,20,2.86,23,1.91,1.09,14.47,6.88,25.28,2.5,1.43-.78,6.36-2.57,9.06-10.31,3.65-12-10-12-6.2-13.91a16.46,16.46,0,0,0,7.47-7.19C859.71,367.46,863.52,359.68,850.65,353.87Z" transform="translate(302.57 -338.74)"/><path class="cls-4" d="M-9.93,378.42c-19.4-8.75-47.22,12.35-47.22,12.35l3.5,13.12s6.68-16.25,22.73-18c0,0,13-2,15.58,3.13,0,0,1.75,3.9-.95,5.78,0,0-7,3.91-7.31,9.06.63,4.38,6,5.31,6.19,8.75,0,4.53-6.19,9.22-11,3.28-1.12-1.87,1.27-12,1.27-15.15,0,0,0-8.13-6.84-8.75,0,0-7.15-1.25-7,8.75,0,0,0,20,2.86,23,1.91,1.09,14.47,6.87,25.27,2.5,1.44-.78,6.36-2.58,9.07-10.32,3.65-12-10-12-6.2-13.9a16.56,16.56,0,0,0,7.47-7.19C-.87,392,2.94,384.23-9.93,378.42Z" transform="translate(302.57 -338.74)"/><path class="cls-4" d="M-140,361.24c-19.39-8.75-47.21,12.34-47.21,12.34l3.49,13.13s6.68-16.25,22.74-18c0,0,13-2,15.57,3.12,0,0,1.75,3.91-.95,5.78,0,0-7,3.91-7.31,9.07.63,4.37,6,5.31,6.2,8.75,0,4.53-6.2,9.22-11,3.28-1.11-1.88,1.27-12,1.27-15.16,0,0,0-8.12-6.83-8.75,0,0-7.16-1.25-7,8.75,0,0,0,20,2.86,23,1.91,1.1,14.47,6.88,25.28,2.5,1.43-.78,6.36-2.57,9.06-10.31,3.66-12-10-12-6.2-13.91a16.46,16.46,0,0,0,7.47-7.19C-131,374.83-127.17,367.05-140,361.24Z" transform="translate(302.57 -338.74)"/><path class="cls-4" d="M-251.35,419.87c-19.4-8.75-47.22,12.34-47.22,12.34l3.5,13.13s6.68-16.26,22.73-18c0,0,13-2,15.58,3.12,0,0,1.75,3.91-.95,5.78,0,0-7,3.91-7.32,9.07.64,4.37,6,5.31,6.2,8.75,0,4.53-6.2,9.22-11,3.28-1.12-1.88,1.27-12,1.27-15.16,0,0,0-8.12-6.84-8.75,0,0-7.15-1.25-7,8.75,0,0,0,20,2.86,23,1.91,1.09,14.46,6.88,25.27,2.5,1.44-.78,6.36-2.57,9.07-10.31,3.65-12-10-12-6.2-13.91a16.46,16.46,0,0,0,7.47-7.19C-242.29,433.46-238.48,425.68-251.35,419.87Z" transform="translate(302.57 -338.74)"/><path class="cls-4" d="M-246.8,359.21c-19.39-8.75-47.21,12.34-47.21,12.34l3.49,13.13s6.68-16.25,22.74-18c0,0,13-2,15.57,3.12,0,0,1.75,3.91-.95,5.79,0,0-7,3.9-7.31,9.06.63,4.37,6,5.31,6.2,8.75,0,4.53-6.2,9.22-11,3.28-1.11-1.87,1.27-12,1.27-15.16,0,0,0-8.12-6.83-8.75,0,0-7.16-1.25-7,8.75,0,0,0,20,2.86,23,1.91,1.1,14.47,6.88,25.28,2.5,1.43-.78,6.36-2.57,9.06-10.31,3.66-12-10-12-6.2-13.91a16.49,16.49,0,0,0,7.47-7.18C-237.74,372.8-233.92,365-246.8,359.21Z" transform="translate(302.57 -338.74)"/><path class="cls-4" d="M621.44,477.1c-19.4-8.75-47.22,12.35-47.22,12.35l3.5,13.12s6.68-16.25,22.73-18c0,0,13-2,15.58,3.13,0,0,1.75,3.9-.95,5.78,0,0-7,3.9-7.31,9.06.63,4.38,6,5.31,6.2,8.75,0,4.53-6.2,9.22-11,3.28-1.12-1.87,1.27-12,1.27-15.15,0,0,0-8.13-6.84-8.75,0,0-7.15-1.25-7,8.75,0,0,0,20,2.86,23,1.91,1.09,14.47,6.87,25.28,2.5,1.43-.79,6.35-2.58,9.06-10.32,3.65-12-10-12-6.2-13.9a16.56,16.56,0,0,0,7.47-7.19C630.5,490.7,634.31,482.91,621.44,477.1Z" transform="translate(302.57 -338.74)"/><path class="cls-4" d="M897.77,432.68C878.38,423.93,850.56,445,850.56,445l3.49,13.12s6.68-16.25,22.74-18c0,0,13-2,15.58,3.13,0,0,1.74,3.9-1,5.78,0,0-7,3.9-7.31,9.06.64,4.38,6,5.31,6.2,8.75,0,4.53-6.2,9.22-11,3.28-1.11-1.87,1.27-12,1.27-15.15,0,0,0-8.13-6.83-8.75,0,0-7.16-1.25-7,8.75,0,0,0,20,2.86,23,1.91,1.09,14.47,6.87,25.28,2.5,1.43-.79,6.36-2.58,9.06-10.32,3.66-12-10-12-6.2-13.9a16.51,16.51,0,0,0,7.47-7.19C906.83,446.28,910.65,438.49,897.77,432.68Z" transform="translate(302.57 -338.74)"/><path class="cls-4" d="M483.83,537.87c-19.39-8.76-47.21,12.34-47.21,12.34l3.49,13.13s6.68-16.26,22.74-18c0,0,13-2,15.58,3.12,0,0,1.74,3.91-1,5.78,0,0-7,3.91-7.31,9.07.64,4.37,6,5.31,6.2,8.75,0,4.53-6.2,9.22-11,3.28-1.11-1.88,1.27-12,1.27-15.16,0,0,0-8.13-6.83-8.75,0,0-7.16-1.25-7,8.75,0,0,0,20,2.86,23,1.91,1.09,14.47,6.88,25.28,2.5,1.43-.78,6.36-2.57,9.06-10.31,3.66-12-10-12-6.2-13.91a16.41,16.41,0,0,0,7.47-7.19C492.89,551.46,496.71,543.67,483.83,537.87Z" transform="translate(302.57 -338.74)"/><path class="cls-4" d="M699.78,537.92c-19.39-8.76-47.21,12.34-47.21,12.34l3.49,13.13s6.68-16.26,22.74-18c0,0,13-2,15.58,3.12,0,0,1.75,3.91-1,5.78,0,0-7,3.91-7.31,9.07.64,4.37,6,5.31,6.2,8.75,0,4.53-6.2,9.22-11,3.28-1.11-1.88,1.27-12,1.27-15.16,0,0,0-8.12-6.83-8.75,0,0-7.16-1.25-7,8.75,0,0,0,20,2.86,23,1.91,1.09,14.47,6.88,25.28,2.5,1.43-.78,6.36-2.57,9.06-10.31,3.66-12-10-12-6.2-13.91a16.41,16.41,0,0,0,7.47-7.19C708.84,551.51,712.66,543.73,699.78,537.92Z" transform="translate(302.57 -338.74)"/><path class="cls-4" d="M1058.78,505.92c-19.39-8.76-47.21,12.34-47.21,12.34l3.5,13.13s6.67-16.26,22.73-18c0,0,13-2,15.58,3.12,0,0,1.75,3.91-1,5.78,0,0-7,3.91-7.31,9.07.64,4.37,6,5.31,6.2,8.75,0,4.53-6.2,9.22-11,3.28-1.11-1.88,1.27-12,1.27-15.16,0,0,0-8.12-6.83-8.75,0,0-7.16-1.25-7,8.75,0,0,0,20,2.86,23,1.91,1.09,14.47,6.88,25.28,2.5,1.43-.78,6.36-2.57,9.06-10.31,3.66-12-10-12-6.2-13.91a16.41,16.41,0,0,0,7.47-7.19C1067.84,519.51,1071.66,511.73,1058.78,505.92Z" transform="translate(302.57 -338.74)"/><path class="cls-4" d="M201.2,552.73C181.81,544,154,565.07,154,565.07l3.49,13.13s6.68-16.25,22.74-18c0,0,13-2,15.58,3.13,0,0,1.74,3.9-1,5.78,0,0-7,3.9-7.31,9.06.64,4.38,6,5.31,6.2,8.75,0,4.53-6.2,9.22-11,3.28-1.11-1.87,1.27-12,1.27-15.15,0,0,0-8.13-6.83-8.76,0,0-7.16-1.25-7,8.76,0,0,0,20,2.86,23,1.91,1.09,14.47,6.87,25.28,2.5,1.43-.79,6.36-2.58,9.06-10.32,3.66-12-10-12-6.2-13.9a16.51,16.51,0,0,0,7.47-7.19C210.26,566.32,214.08,558.54,201.2,552.73Z" transform="translate(302.57 -338.74)"/><path class="cls-4" d="M569.66,520.73c-19.39-8.75-47.21,12.34-47.21,12.34L526,546.2s6.67-16.25,22.73-18c0,0,13-2,15.58,3.13,0,0,1.75,3.9-1,5.78,0,0-7,3.9-7.31,9.06.64,4.38,6,5.31,6.2,8.75,0,4.53-6.2,9.22-11,3.28-1.11-1.87,1.27-12,1.27-15.15,0,0,0-8.13-6.83-8.76,0,0-7.16-1.25-7,8.76,0,0,0,20,2.86,23,1.91,1.09,14.47,6.87,25.28,2.5,1.43-.79,6.36-2.58,9.06-10.32,3.66-12-10-12-6.2-13.9a16.51,16.51,0,0,0,7.47-7.19C578.72,534.32,582.54,526.54,569.66,520.73Z" transform="translate(302.57 -338.74)"/><path class="cls-4" d="M940.83,548.87c-19.39-8.76-47.21,12.34-47.21,12.34l3.5,13.13s6.67-16.26,22.73-18c0,0,13-2,15.58,3.12,0,0,1.75,3.91-1,5.78,0,0-7,3.91-7.31,9.07.64,4.37,6,5.31,6.2,8.75,0,4.53-6.2,9.22-11,3.28-1.11-1.88,1.27-12,1.27-15.16,0,0,0-8.13-6.83-8.75,0,0-7.15-1.25-7,8.75,0,0,0,20,2.87,23,1.9,1.09,14.46,6.88,25.27,2.5,1.43-.78,6.36-2.57,9.06-10.31,3.66-12-10-12-6.2-13.91a16.43,16.43,0,0,0,7.48-7.19C949.89,562.46,953.71,554.67,940.83,548.87Z" transform="translate(302.57 -338.74)"/><path class="cls-4" d="M71.08,535.54c-19.39-8.75-47.21,12.35-47.21,12.35L27.37,561s6.67-16.26,22.73-18c0,0,13-2,15.58,3.12,0,0,1.75,3.91-1,5.78,0,0-7,3.91-7.31,9.07.64,4.37,6,5.31,6.2,8.75,0,4.53-6.2,9.21-11,3.28-1.11-1.88,1.27-12,1.27-15.16,0,0,0-8.13-6.83-8.75,0,0-7.15-1.25-7,8.75,0,0,0,20,2.87,23,1.9,1.09,14.46,6.88,25.27,2.5,1.43-.78,6.36-2.57,9.06-10.31,3.66-12-10-12-6.2-13.91A16.51,16.51,0,0,0,78.55,552C80.14,549.14,84,541.35,71.08,535.54Z" transform="translate(302.57 -338.74)"/><path class="cls-4" d="M-189.15,501.17c-19.4-8.75-47.22,12.35-47.22,12.35l3.5,13.12s6.68-16.25,22.73-18c0,0,13-2,15.58,3.13,0,0,1.75,3.91-.95,5.78,0,0-7,3.91-7.31,9.06.63,4.38,6,5.32,6.2,8.75,0,4.54-6.2,9.22-11,3.29-1.12-1.88,1.27-12,1.27-15.16,0,0,0-8.13-6.84-8.75,0,0-7.15-1.25-7,8.75,0,0,0,20,2.86,23,1.91,1.09,14.47,6.87,25.28,2.5,1.43-.78,6.35-2.57,9.06-10.31,3.65-12-10-12-6.2-13.91a16.56,16.56,0,0,0,7.47-7.19C-180.09,514.77-176.28,507-189.15,501.17Z" transform="translate(302.57 -338.74)"/><path class="cls-4" d="M-51.34,541.76C-70.74,533-98.56,554.1-98.56,554.1l3.5,13.13s6.68-16.25,22.73-18c0,0,13-2,15.58,3.12,0,0,1.75,3.91-1,5.78,0,0-7,3.91-7.31,9.07.63,4.37,6,5.31,6.2,8.75,0,4.53-6.2,9.22-11,3.28-1.12-1.88,1.27-12,1.27-15.16,0,0,0-8.12-6.84-8.75,0,0-7.15-1.25-7,8.75,0,0,0,20,2.86,23,1.91,1.1,14.47,6.88,25.28,2.5,1.43-.78,6.35-2.57,9.06-10.31,3.65-12-10-12-6.2-13.91a16.46,16.46,0,0,0,7.47-7.19C-42.28,555.35-38.47,547.57-51.34,541.76Z" transform="translate(302.57 -338.74)"/><path class="cls-4" d="M129.5,412.93c-19.39-8.76-47.21,12.34-47.21,12.34l3.49,13.13s6.68-16.26,22.74-18c0,0,13-2,15.58,3.12,0,0,1.74,3.91-1,5.78,0,0-7,3.91-7.31,9.07.64,4.37,6,5.31,6.2,8.75,0,4.53-6.2,9.22-11,3.28-1.11-1.88,1.27-12,1.27-15.16,0,0,0-8.13-6.83-8.75,0,0-7.16-1.25-7,8.75,0,0,0,20,2.86,23,1.91,1.09,14.47,6.88,25.28,2.5,1.43-.78,6.36-2.57,9.06-10.31,3.66-12-10-12-6.2-13.91a16.41,16.41,0,0,0,7.47-7.19C138.56,426.52,142.38,418.73,129.5,412.93Z" transform="translate(302.57 -338.74)"/><path class="cls-4" d="M441.71,436.33c-9.27-4.58-22.58,6.47-22.58,6.47l1.68,6.87s3.19-8.51,10.87-9.41c0,0,6.23-1.07,7.45,1.64,0,0,.83,2-.46,3,0,0-3.34,2.05-3.49,4.75.3,2.29,2.88,2.78,3,4.59,0,2.37-3,4.82-5.25,1.71-.53-1,.61-6.3.61-7.94,0,0,0-4.25-3.27-4.58,0,0-3.42-.65-3.34,4.58,0,0,0,10.48,1.37,12,.91.57,6.92,3.6,12.09,1.31.68-.41,3-1.35,4.33-5.41,1.75-6.3-4.79-6.3-3-7.28a8.23,8.23,0,0,0,3.58-3.77C446.05,443.45,447.87,439.37,441.71,436.33Z" transform="translate(302.57 -338.74)"/><path class="cls-4" d="M810.18,404.33c-9.28-4.58-22.58,6.47-22.58,6.47l1.67,6.87s3.19-8.51,10.87-9.41c0,0,6.24-1.06,7.45,1.64,0,0,.84,2-.45,3,0,0-3.35,2.05-3.5,4.75.3,2.29,2.89,2.78,3,4.59,0,2.37-3,4.82-5.24,1.71-.53-1,.61-6.3.61-7.93,0,0,0-4.26-3.27-4.59,0,0-3.42-.65-3.35,4.59,0,0,0,10.47,1.37,12,.91.57,6.92,3.6,12.09,1.31.68-.41,3-1.35,4.33-5.41,1.75-6.3-4.79-6.3-3-7.28a8.26,8.26,0,0,0,3.57-3.77C814.51,411.45,816.34,407.37,810.18,404.33Z" transform="translate(302.57 -338.74)"/><path class="cls-4" d="M757.44,346.76c-9.28-4.58-22.58,6.47-22.58,6.47l1.67,6.87s3.19-8.51,10.87-9.41c0,0,6.24-1.06,7.45,1.64,0,0,.84,2.05-.45,3,0,0-3.35,2-3.5,4.74.3,2.3,2.89,2.79,3,4.59,0,2.37-3,4.83-5.24,1.72-.53-1,.61-6.31.61-7.94,0,0,0-4.26-3.27-4.59,0,0-3.42-.65-3.35,4.59,0,0,0,10.47,1.37,12,.91.57,6.92,3.6,12.09,1.31a8.21,8.21,0,0,0,4.33-5.4c1.75-6.31-4.79-6.31-3-7.29a8.29,8.29,0,0,0,3.57-3.76C761.77,353.88,763.6,349.81,757.44,346.76Z" transform="translate(302.57 -338.74)"/><path class="cls-4" d="M311.6,419.15c-9.28-4.59-22.58,6.46-22.58,6.46l1.67,6.88s3.19-8.52,10.87-9.42c0,0,6.23-1.06,7.45,1.64,0,0,.84,2.05-.45,3,0,0-3.35,2.05-3.5,4.75.3,2.29,2.89,2.78,3,4.58,0,2.37-3,4.83-5.24,1.72-.54-1,.61-6.3.61-7.94,0,0,0-4.26-3.27-4.58,0,0-3.43-.66-3.35,4.58,0,0,0,10.48,1.37,12,.91.57,6.92,3.6,12.09,1.31a8.21,8.21,0,0,0,4.33-5.4c1.75-6.3-4.79-6.3-3-7.29a8.29,8.29,0,0,0,3.57-3.76C315.93,426.27,317.75,422.19,311.6,419.15Z" transform="translate(302.57 -338.74)"/><path class="cls-4" d="M680.06,387.15c-9.28-4.59-22.58,6.46-22.58,6.46l1.67,6.88s3.19-8.52,10.87-9.42c0,0,6.24-1.06,7.45,1.64,0,0,.84,2.05-.45,3,0,0-3.35,2.05-3.5,4.75.3,2.29,2.89,2.78,3,4.58,0,2.37-3,4.83-5.24,1.72-.53-1,.61-6.3.61-7.94,0,0,0-4.26-3.27-4.58,0,0-3.42-.66-3.35,4.58,0,0,0,10.48,1.37,12,.91.57,6.92,3.6,12.09,1.31a8.21,8.21,0,0,0,4.33-5.4c1.75-6.3-4.79-6.3-3-7.29a8.29,8.29,0,0,0,3.57-3.76C684.39,394.27,686.22,390.19,680.06,387.15Z" transform="translate(302.57 -338.74)"/><path class="cls-4" d="M1039.06,355.15c-9.28-4.59-22.58,6.46-22.58,6.46l1.67,6.88s3.2-8.52,10.87-9.42c0,0,6.24-1.06,7.45,1.64,0,0,.84,2.05-.45,3,0,0-3.35,2.05-3.5,4.75.31,2.29,2.89,2.78,3,4.58,0,2.37-3,4.83-5.25,1.72-.53-1,.61-6.3.61-7.94,0,0,0-4.26-3.27-4.58,0,0-3.42-.66-3.35,4.58,0,0,0,10.48,1.37,12,.92.57,6.92,3.6,12.09,1.31.69-.41,3-1.35,4.33-5.4,1.75-6.3-4.78-6.3-3-7.29a8.29,8.29,0,0,0,3.57-3.76C1043.39,362.27,1045.22,358.19,1039.06,355.15Z" transform="translate(302.57 -338.74)"/><path class="cls-4" d="M44.88,455c-9.27-4.58-22.58,6.47-22.58,6.47L24,468.38s3.19-8.52,10.87-9.42c0,0,6.23-1.06,7.45,1.64,0,0,.83,2-.46,3,0,0-3.34,2.05-3.5,4.75.31,2.29,2.89,2.78,3,4.58,0,2.37-3,4.83-5.25,1.72-.53-1,.61-6.3.61-7.94,0,0,0-4.26-3.27-4.58,0,0-3.42-.66-3.34,4.58,0,0,0,10.48,1.37,12,.91.57,6.91,3.6,12.08,1.31.69-.41,3.05-1.35,4.34-5.4,1.75-6.3-4.79-6.3-3-7.29a8.26,8.26,0,0,0,3.58-3.76C49.22,462.16,51,458.08,44.88,455Z" transform="translate(302.57 -338.74)"/><path class="cls-4" d="M549.94,370c-9.28-4.58-22.58,6.47-22.58,6.47L529,383.3s3.19-8.51,10.87-9.41c0,0,6.24-1.07,7.45,1.64,0,0,.84,2-.45,3,0,0-3.35,2.05-3.5,4.75.3,2.29,2.89,2.78,3,4.59,0,2.37-3,4.82-5.25,1.71-.53-1,.61-6.3.61-7.94,0,0,0-4.25-3.27-4.58,0,0-3.42-.65-3.35,4.58,0,0,0,10.48,1.37,12,.91.57,6.92,3.6,12.09,1.31.68-.41,3-1.35,4.33-5.41,1.75-6.3-4.79-6.3-3-7.28a8.26,8.26,0,0,0,3.57-3.77C554.27,377.08,556.1,373,549.94,370Z" transform="translate(302.57 -338.74)"/><path class="cls-4" d="M909,340.85c-9.27-4.58-22.58,6.47-22.58,6.47l1.68,6.88s3.19-8.52,10.87-9.42c0,0,6.23-1.06,7.45,1.64,0,0,.84,2.05-.46,3,0,0-3.34,2-3.49,4.75.3,2.29,2.89,2.78,3,4.58,0,2.37-3,4.83-5.24,1.72-.54-1,.6-6.3.6-7.94,0,0,0-4.26-3.27-4.59,0,0-3.42-.65-3.34,4.59,0,0,0,10.47,1.37,12,.91.57,6.92,3.6,12.09,1.31a8.21,8.21,0,0,0,4.33-5.4c1.75-6.3-4.79-6.3-3-7.29a8.26,8.26,0,0,0,3.58-3.76C913.35,348,915.17,343.9,909,340.85Z" transform="translate(302.57 -338.74)"/><path class="cls-4" d="M51.36,384.77c-9.27-4.58-22.58,6.47-22.58,6.47l1.67,6.88s3.2-8.52,10.88-9.42c0,0,6.23-1.06,7.45,1.64,0,0,.83,2.05-.46,3,0,0-3.35,2.05-3.5,4.75.31,2.29,2.89,2.78,3,4.58,0,2.37-3,4.83-5.25,1.72-.53-1,.61-6.3.61-7.94,0,0,0-4.26-3.27-4.58,0,0-3.42-.66-3.34,4.58,0,0,0,10.48,1.36,12,.92.57,6.92,3.6,12.09,1.31.69-.41,3-1.35,4.34-5.4,1.74-6.3-4.79-6.3-3-7.29a8.23,8.23,0,0,0,3.57-3.76C55.69,391.9,57.52,387.82,51.36,384.77Z" transform="translate(302.57 -338.74)"/><path class="cls-4" d="M111,345.85c-9.27-4.58-22.58,6.47-22.58,6.47l1.67,6.88s3.2-8.52,10.88-9.42c0,0,6.23-1.06,7.45,1.64,0,0,.83,2.05-.46,3,0,0-3.34,2-3.5,4.75.31,2.29,2.89,2.78,3,4.58,0,2.37-3,4.83-5.25,1.72-.53-1,.61-6.3.61-7.94,0,0,0-4.26-3.27-4.59,0,0-3.42-.65-3.34,4.59,0,0,0,10.47,1.37,12,.91.57,6.91,3.6,12.08,1.31.69-.41,3-1.35,4.34-5.4,1.75-6.3-4.79-6.3-3-7.29a8.26,8.26,0,0,0,3.58-3.76C115.35,353,117.17,348.9,111,345.85Z" transform="translate(302.57 -338.74)"/><path class="cls-4" d="M-78.76,367.59c-9.27-4.58-22.58,6.47-22.58,6.47l1.68,6.87s3.19-8.51,10.87-9.41c0,0,6.23-1.07,7.45,1.64,0,0,.83,2-.46,3,0,0-3.34,2.05-3.5,4.75.31,2.29,2.89,2.78,3,4.58,0,2.38-3,4.83-5.25,1.72-.53-1,.61-6.3.61-7.94,0,0,0-4.25-3.27-4.58,0,0-3.42-.65-3.34,4.58,0,0,0,10.48,1.37,12,.91.57,6.91,3.6,12.08,1.31.69-.41,3-1.35,4.34-5.41,1.75-6.3-4.79-6.3-3-7.28a8.23,8.23,0,0,0,3.58-3.77C-74.42,374.71-72.6,370.63-78.76,367.59Z" transform="translate(302.57 -338.74)"/><path class="cls-4" d="M-208.87,350.4c-9.28-4.58-22.59,6.47-22.59,6.47l1.68,6.88s3.19-8.52,10.87-9.42c0,0,6.23-1.06,7.45,1.64,0,0,.84,2-.46,3,0,0-3.34,2-3.49,4.75.3,2.29,2.89,2.78,3,4.58,0,2.37-3,4.83-5.24,1.72-.54-1,.6-6.3.6-7.94,0,0,0-4.26-3.26-4.59,0,0-3.43-.65-3.35,4.59,0,0,0,10.48,1.37,12,.91.57,6.92,3.6,12.09,1.31a8.21,8.21,0,0,0,4.33-5.4c1.75-6.3-4.79-6.3-3-7.29A8.29,8.29,0,0,0-205.3,359C-204.54,357.52-202.72,353.45-208.87,350.4Z" transform="translate(302.57 -338.74)"/><path class="cls-4" d="M405.9,548.74c-9.27-4.58-22.58,6.47-22.58,6.47l1.67,6.87s3.2-8.51,10.88-9.41c0,0,6.23-1.06,7.45,1.64,0,0,.83,2-.46,3,0,0-3.34,2-3.5,4.74.31,2.3,2.89,2.79,3,4.59,0,2.37-3,4.83-5.25,1.72-.53-1,.61-6.31.61-7.94,0,0,0-4.26-3.27-4.59,0,0-3.42-.65-3.34,4.59,0,0,0,10.47,1.36,12,.92.57,6.92,3.6,12.09,1.31.69-.41,3-1.35,4.34-5.4,1.75-6.31-4.79-6.31-3-7.29a8.31,8.31,0,0,0,3.58-3.76C410.24,555.86,412.06,551.79,405.9,548.74Z" transform="translate(302.57 -338.74)"/><path class="cls-4" d="M349.89,532.64c-9.28-4.59-22.58,6.46-22.58,6.46L329,546s3.19-8.51,10.87-9.41c0,0,6.24-1.07,7.45,1.63,0,0,.84,2-.45,3,0,0-3.35,2-3.5,4.75.31,2.29,2.89,2.78,3,4.58,0,2.38-3,4.83-5.25,1.72-.53-1,.61-6.3.61-7.94,0,0,0-4.25-3.27-4.58,0,0-3.42-.66-3.35,4.58,0,0,0,10.48,1.37,12,.91.58,6.92,3.61,12.09,1.31.69-.41,3-1.34,4.33-5.4,1.75-6.3-4.79-6.3-3-7.28a8.26,8.26,0,0,0,3.57-3.77C354.22,539.76,356.05,535.68,349.89,532.64Z" transform="translate(302.57 -338.74)"/><path class="cls-4" d="M761.08,544.27c-9.28-4.59-22.58,6.46-22.58,6.46l1.67,6.88s3.19-8.51,10.87-9.41c0,0,6.23-1.07,7.45,1.63,0,0,.84,2-.45,3,0,0-3.35,2-3.5,4.75.3,2.29,2.89,2.78,3,4.58,0,2.38-3,4.83-5.24,1.72-.54-1,.61-6.3.61-7.94,0,0,0-4.25-3.27-4.58,0,0-3.43-.66-3.35,4.58,0,0,0,10.48,1.37,12,.91.57,6.92,3.6,12.09,1.3.68-.4,3-1.34,4.33-5.4,1.75-6.3-4.79-6.3-3-7.28a8.26,8.26,0,0,0,3.57-3.77C765.41,551.39,767.23,547.31,761.08,544.27Z" transform="translate(302.57 -338.74)"/><path class="cls-4" d="M1120.08,512.27c-9.28-4.59-22.58,6.46-22.58,6.46l1.67,6.88s3.19-8.51,10.87-9.41c0,0,6.23-1.07,7.45,1.63,0,0,.84,2-.45,3,0,0-3.35,2-3.5,4.75.3,2.29,2.89,2.78,3,4.58,0,2.38-3,4.83-5.24,1.72-.54-1,.61-6.3.61-7.94,0,0,0-4.25-3.27-4.58,0,0-3.43-.66-3.35,4.58,0,0,0,10.48,1.37,12,.91.57,6.92,3.6,12.09,1.3.68-.4,3-1.34,4.33-5.4,1.75-6.3-4.79-6.3-3-7.28a8.26,8.26,0,0,0,3.57-3.77C1124.41,519.39,1126.23,515.31,1120.08,512.27Z" transform="translate(302.57 -338.74)"/><path class="cls-4" d="M262.49,559.08c-9.27-4.58-22.58,6.47-22.58,6.47l1.68,6.87s3.19-8.51,10.87-9.41c0,0,6.23-1.06,7.45,1.64,0,0,.84,2.05-.46,3,0,0-3.34,2-3.49,4.74.3,2.3,2.89,2.79,3,4.59,0,2.37-3,4.83-5.24,1.72-.54-1,.6-6.31.6-7.94,0,0,0-4.26-3.27-4.59,0,0-3.42-.65-3.34,4.59,0,0,0,10.47,1.37,12,.91.57,6.92,3.6,12.09,1.31a8.21,8.21,0,0,0,4.33-5.4c1.75-6.31-4.79-6.31-3-7.29a8.26,8.26,0,0,0,3.58-3.76C266.83,566.2,268.65,562.13,262.49,559.08Z" transform="translate(302.57 -338.74)"/><path class="cls-4" d="M192.06,455.57C182.79,451,169.48,462,169.48,462l1.68,6.88s3.19-8.51,10.87-9.42c0,0,6.23-1.06,7.45,1.64,0,0,.83,2.05-.46,3,0,0-3.34,2-3.5,4.75.31,2.29,2.89,2.78,3,4.58,0,2.37-3,4.83-5.25,1.72-.53-1,.61-6.3.61-7.94,0,0,0-4.26-3.27-4.58,0,0-3.42-.66-3.34,4.58,0,0,0,10.48,1.37,12,.91.58,6.91,3.6,12.08,1.31.69-.41,3.05-1.35,4.34-5.4,1.75-6.3-4.79-6.3-3-7.28a8.33,8.33,0,0,0,3.58-3.77C196.4,462.69,198.22,458.61,192.06,455.57Z" transform="translate(302.57 -338.74)"/><path class="cls-4" d="M631,527.08c-9.28-4.58-22.58,6.47-22.58,6.47l1.67,6.87s3.19-8.51,10.87-9.41c0,0,6.23-1.06,7.45,1.64,0,0,.84,2.05-.46,3,0,0-3.34,2-3.49,4.74.3,2.3,2.89,2.79,3,4.59,0,2.37-3,4.83-5.24,1.72-.54-1,.6-6.31.6-7.94,0,0,0-4.26-3.26-4.59,0,0-3.43-.65-3.35,4.59,0,0,0,10.47,1.37,12,.91.57,6.92,3.6,12.09,1.31a8.21,8.21,0,0,0,4.33-5.4c1.75-6.31-4.79-6.31-3-7.29a8.29,8.29,0,0,0,3.57-3.76C635.29,534.2,637.11,530.13,631,527.08Z" transform="translate(302.57 -338.74)"/><path class="cls-4" d="M990,495.08c-9.28-4.58-22.58,6.47-22.58,6.47l1.67,6.87s3.19-8.51,10.87-9.41c0,0,6.24-1.06,7.45,1.64,0,0,.84,2.05-.45,3,0,0-3.35,2-3.5,4.74.3,2.3,2.89,2.79,3,4.59,0,2.37-3,4.83-5.24,1.72-.53-1,.61-6.31.61-7.94,0,0,0-4.26-3.27-4.59,0,0-3.42-.65-3.35,4.59,0,0,0,10.47,1.37,12,.91.57,6.92,3.6,12.09,1.31a8.21,8.21,0,0,0,4.33-5.4c1.75-6.31-4.79-6.31-3-7.29a8.29,8.29,0,0,0,3.57-3.76C994.29,502.2,996.12,498.13,990,495.08Z" transform="translate(302.57 -338.74)"/><path class="cls-4" d="M2.26,524.71c-9.28-4.58-22.58,6.47-22.58,6.47l1.67,6.87s3.19-8.51,10.87-9.41c0,0,6.24-1.06,7.45,1.64,0,0,.84,2-.45,3,0,0-3.35,2-3.5,4.74.31,2.3,2.89,2.79,3,4.59,0,2.37-3,4.83-5.25,1.72-.53-1,.61-6.31.61-7.94,0,0,0-4.26-3.27-4.59,0,0-3.42-.65-3.35,4.59,0,0,0,10.47,1.37,12,.91.57,6.92,3.6,12.09,1.31.69-.41,3-1.35,4.33-5.4,1.75-6.31-4.79-6.31-3-7.29a8.29,8.29,0,0,0,3.57-3.76C6.59,531.83,8.42,527.76,2.26,524.71Z" transform="translate(302.57 -338.74)"/><path class="cls-4" d="M-127.86,507.53c-9.27-4.59-22.58,6.46-22.58,6.46l1.67,6.88s3.2-8.51,10.88-9.41c0,0,6.23-1.07,7.45,1.63,0,0,.83,2-.46,3,0,0-3.35,2-3.5,4.75.31,2.29,2.89,2.78,3,4.58,0,2.38-3,4.83-5.25,1.72-.53-1,.61-6.3.61-7.94,0,0,0-4.26-3.27-4.58,0,0-3.42-.66-3.34,4.58,0,0,0,10.48,1.36,12,.92.58,6.92,3.6,12.09,1.31.69-.41,3-1.35,4.34-5.4,1.75-6.3-4.79-6.3-3-7.28a8.3,8.3,0,0,0,3.57-3.77C-123.53,514.65-121.7,510.57-127.86,507.53Z" transform="translate(302.57 -338.74)"/><path class="cls-4" d="M-108,575.85c-9.27-4.58-22.58,6.47-22.58,6.47l1.67,6.87s3.2-8.51,10.88-9.41c0,0,6.23-1.06,7.45,1.64,0,0,.83,2.05-.46,3,0,0-3.34,2-3.5,4.74.31,2.3,2.89,2.79,3,4.59,0,2.37-3,4.83-5.25,1.72-.53-1,.61-6.31.61-7.94,0,0,0-4.26-3.27-4.59,0,0-3.42-.65-3.34,4.59,0,0,0,10.47,1.37,12,.91.57,6.91,3.6,12.08,1.31.69-.41,3-1.35,4.34-5.4,1.75-6.31-4.79-6.31-3-7.29a8.26,8.26,0,0,0,3.58-3.76C-103.65,583-101.83,578.9-108,575.85Z" transform="translate(302.57 -338.74)"/><path class="cls-4" d="M-258,490.34c-9.27-4.58-22.58,6.47-22.58,6.47l1.68,6.87s3.19-8.51,10.87-9.41c0,0,6.23-1.06,7.45,1.64,0,0,.84,2-.46,3,0,0-3.34,2-3.49,4.74.3,2.29,2.88,2.79,3,4.59,0,2.37-3,4.83-5.24,1.72-.54-1,.6-6.31.6-7.94,0,0,0-4.26-3.27-4.59,0,0-3.42-.65-3.34,4.59,0,0,0,10.47,1.37,12,.91.57,6.92,3.6,12.09,1.31A8.21,8.21,0,0,0-255,510c1.75-6.31-4.79-6.31-3-7.29a8.26,8.26,0,0,0,3.58-3.76C-253.64,497.46-251.82,493.38-258,490.34Z" transform="translate(302.57 -338.74)"/><path class="cls-4" d="M-142,452.85c-9.27-4.58-22.58,6.47-22.58,6.47l1.67,6.87s3.2-8.51,10.88-9.41c0,0,6.23-1.06,7.45,1.64,0,0,.83,2.05-.46,3,0,0-3.34,2-3.5,4.74.31,2.3,2.89,2.79,3,4.59,0,2.37-3,4.83-5.25,1.72-.53-1,.61-6.31.61-7.94,0,0,0-4.26-3.27-4.59,0,0-3.42-.65-3.34,4.59,0,0,0,10.47,1.37,12,.91.57,6.91,3.6,12.08,1.31.69-.41,3-1.35,4.34-5.4,1.75-6.31-4.79-6.31-3-7.29a8.26,8.26,0,0,0,3.58-3.76C-137.65,460-135.83,455.9-142,452.85Z" transform="translate(302.57 -338.74)"/><path class="cls-4" d="M279,342.85c-9.27-4.58-22.58,6.47-22.58,6.47l1.67,6.88s3.2-8.52,10.88-9.42c0,0,6.23-1.06,7.45,1.64,0,0,.83,2.05-.46,3,0,0-3.34,2-3.5,4.75.31,2.29,2.89,2.78,3,4.58,0,2.37-3,4.83-5.25,1.72-.53-1,.61-6.3.61-7.94,0,0,0-4.26-3.27-4.59,0,0-3.42-.65-3.34,4.59,0,0,0,10.47,1.37,12,.91.57,6.91,3.6,12.08,1.31.69-.41,3-1.35,4.34-5.4,1.75-6.3-4.79-6.3-3-7.29a8.26,8.26,0,0,0,3.58-3.76C283.35,350,285.17,345.9,279,342.85Z" transform="translate(302.57 -338.74)"/><path class="cls-4" d="M458.9,500.16c-9.28-4.58-22.58,6.47-22.58,6.47L438,513.5s3.2-8.51,10.87-9.41c0,0,6.24-1.06,7.46,1.64,0,0,.83,2-.46,3,0,0-3.35,2-3.5,4.74.31,2.29,2.89,2.79,3,4.59,0,2.37-3,4.83-5.25,1.72-.53-1,.61-6.31.61-7.94,0,0,0-4.26-3.27-4.59,0,0-3.42-.65-3.35,4.59,0,0,0,10.47,1.37,12,.92.57,6.92,3.6,12.09,1.31.69-.41,3-1.35,4.34-5.4,1.74-6.31-4.79-6.31-3-7.29a8.29,8.29,0,0,0,3.57-3.76C463.23,507.28,465.06,503.2,458.9,500.16Z" transform="translate(302.57 -338.74)"/><path class="cls-4" d="M827.36,468.16c-9.27-4.58-22.58,6.47-22.58,6.47l1.68,6.87s3.19-8.51,10.87-9.41c0,0,6.23-1.06,7.45,1.64,0,0,.83,2-.46,3,0,0-3.34,2-3.49,4.74.3,2.29,2.88,2.79,3,4.59,0,2.37-3,4.83-5.25,1.72-.53-1,.61-6.31.61-7.94,0,0,0-4.26-3.27-4.59,0,0-3.42-.65-3.34,4.59,0,0,0,10.47,1.37,12,.91.57,6.92,3.6,12.08,1.31.69-.41,3-1.35,4.34-5.4,1.75-6.31-4.79-6.31-3-7.29a8.26,8.26,0,0,0,3.58-3.76C831.7,475.28,833.52,471.2,827.36,468.16Z" transform="translate(302.57 -338.74)"/><path class="cls-4" d="M1088,560.63c-9.27-4.58-22.58,6.47-22.58,6.47l1.68,6.88s3.19-8.52,10.87-9.42c0,0,6.23-1.06,7.45,1.64,0,0,.83,2-.46,3,0,0-3.34,2-3.49,4.75.3,2.29,2.88,2.78,3,4.58,0,2.37-3,4.83-5.25,1.72-.53-1,.61-6.3.61-7.94,0,0,0-4.26-3.27-4.58,0,0-3.42-.66-3.34,4.58,0,0,0,10.48,1.37,12,.91.57,6.92,3.6,12.08,1.31.69-.41,3.05-1.35,4.34-5.4,1.75-6.3-4.79-6.3-3-7.29a8.26,8.26,0,0,0,3.58-3.76C1092.33,567.76,1094.15,563.68,1088,560.63Z" transform="translate(302.57 -338.74)"/><path class="cls-4" d="M194,504.92c-9.27-4.59-22.58,6.46-22.58,6.46l1.68,6.88s3.19-8.51,10.87-9.41c0,0,6.23-1.07,7.45,1.63,0,0,.84,2-.46,3,0,0-3.34,2-3.49,4.75.3,2.29,2.89,2.78,3,4.58,0,2.38-3,4.83-5.24,1.72-.54-1,.6-6.3.6-7.94,0,0,0-4.25-3.27-4.58,0,0-3.42-.66-3.34,4.58,0,0,0,10.48,1.37,12,.91.57,6.92,3.6,12.09,1.3.68-.4,3-1.34,4.33-5.4,1.75-6.3-4.79-6.3-3-7.28a8.23,8.23,0,0,0,3.58-3.77C198.35,512,200.17,508,194,504.92Z" transform="translate(302.57 -338.74)"/><path class="cls-4" d="M697.25,451c-9.28-4.59-22.59,6.46-22.59,6.46l1.68,6.88s3.19-8.51,10.87-9.41c0,0,6.23-1.07,7.45,1.63,0,0,.84,2-.46,3,0,0-3.34,2.05-3.49,4.75.3,2.29,2.89,2.78,3,4.58,0,2.38-3,4.83-5.24,1.72-.54-1,.6-6.3.6-7.94,0,0,0-4.26-3.26-4.58,0,0-3.43-.66-3.35,4.58,0,0,0,10.48,1.37,12,.91.58,6.92,3.6,12.09,1.31a8.21,8.21,0,0,0,4.33-5.4c1.75-6.3-4.79-6.3-3-7.28a8.35,8.35,0,0,0,3.57-3.77C701.58,458.1,703.4,454,697.25,451Z" transform="translate(302.57 -338.74)"/><path class="cls-4" d="M1056.25,419c-9.28-4.59-22.59,6.46-22.59,6.46l1.68,6.88s3.19-8.51,10.87-9.41c0,0,6.23-1.07,7.45,1.63,0,0,.84,2-.46,3,0,0-3.34,2.05-3.49,4.75.3,2.29,2.89,2.78,3,4.58,0,2.38-3,4.83-5.24,1.72-.54-1,.6-6.3.6-7.94,0,0,0-4.25-3.26-4.58,0,0-3.43-.66-3.35,4.58,0,0,0,10.48,1.37,12,.91.58,6.92,3.6,12.09,1.31a8.21,8.21,0,0,0,4.33-5.4c1.75-6.3-4.79-6.3-3-7.28a8.35,8.35,0,0,0,3.57-3.77C1060.58,426.1,1062.4,422,1056.25,419Z" transform="translate(302.57 -338.74)"/><path class="cls-4" d="M170.37,373.82c-9.28-4.59-22.58,6.46-22.58,6.46l1.67,6.88s3.19-8.51,10.87-9.41c0,0,6.24-1.07,7.45,1.63,0,0,.84,2.05-.45,3,0,0-3.35,2-3.5,4.75.3,2.29,2.89,2.78,3,4.58,0,2.38-3,4.83-5.25,1.72-.53-1,.61-6.3.61-7.94,0,0,0-4.25-3.27-4.58,0,0-3.42-.66-3.35,4.58,0,0,0,10.48,1.37,12,.91.58,6.92,3.6,12.09,1.31a8.21,8.21,0,0,0,4.33-5.4c1.75-6.3-4.79-6.3-3-7.28a8.35,8.35,0,0,0,3.57-3.77C174.7,380.94,176.53,376.86,170.37,373.82Z" transform="translate(302.57 -338.74)"/><path class="cls-4" d="M567.12,433.79c-9.27-4.58-22.58,6.47-22.58,6.47l1.68,6.87s3.19-8.51,10.87-9.41c0,0,6.23-1.06,7.45,1.64,0,0,.84,2-.46,3,0,0-3.34,2.05-3.49,4.75.3,2.29,2.88,2.79,3,4.59,0,2.37-3,4.83-5.25,1.71-.53-1,.61-6.3.61-7.93,0,0,0-4.26-3.27-4.59,0,0-3.42-.65-3.34,4.59,0,0,0,10.47,1.37,12,.91.57,6.92,3.6,12.09,1.31.68-.41,3-1.35,4.33-5.41,1.75-6.3-4.79-6.3-3-7.28a8.23,8.23,0,0,0,3.58-3.77C571.46,440.91,573.28,436.83,567.12,433.79Z" transform="translate(302.57 -338.74)"/><path class="cls-4" d="M926.13,401.79c-9.28-4.58-22.58,6.47-22.58,6.47l1.67,6.87s3.19-8.51,10.87-9.41c0,0,6.23-1.06,7.45,1.64,0,0,.84,2-.45,3,0,0-3.35,2-3.5,4.74.3,2.29,2.89,2.79,3,4.59,0,2.37-3,4.83-5.24,1.72-.54-1,.61-6.31.61-7.94,0,0,0-4.26-3.27-4.59,0,0-3.43-.65-3.35,4.59,0,0,0,10.47,1.37,12,.91.57,6.92,3.6,12.09,1.31a8.21,8.21,0,0,0,4.33-5.4c1.75-6.31-4.79-6.31-3-7.29a8.29,8.29,0,0,0,3.57-3.76C930.46,408.91,932.28,404.83,926.13,401.79Z" transform="translate(302.57 -338.74)"/><path class="cls-4" d="M-61.57,431.42c-9.28-4.58-22.58,6.47-22.58,6.47l1.67,6.87s3.19-8.51,10.87-9.41c0,0,6.24-1.06,7.45,1.64,0,0,.84,2-.45,3,0,0-3.35,2.05-3.5,4.75.3,2.29,2.89,2.78,3,4.59,0,2.37-3,4.82-5.24,1.71-.53-1,.61-6.3.61-7.94,0,0,0-4.25-3.27-4.58,0,0-3.42-.65-3.35,4.58,0,0,0,10.48,1.37,12,.91.57,6.92,3.6,12.09,1.31.68-.41,3-1.35,4.33-5.41,1.75-6.3-4.79-6.3-3-7.28A8.26,8.26,0,0,0-58,440C-57.24,438.54-55.41,434.46-61.57,431.42Z" transform="translate(302.57 -338.74)"/><path class="cls-4" d="M-191.69,414.24c-9.28-4.59-22.58,6.46-22.58,6.46l1.67,6.88s3.2-8.52,10.87-9.42c0,0,6.24-1.06,7.45,1.64,0,0,.84,2.05-.45,3,0,0-3.35,2.05-3.5,4.75.31,2.29,2.89,2.78,3,4.58,0,2.37-3,4.83-5.25,1.72-.53-1,.61-6.3.61-7.94,0,0,0-4.26-3.27-4.58,0,0-3.42-.66-3.35,4.58,0,0,0,10.48,1.37,12,.92.57,6.92,3.6,12.09,1.31.69-.41,3-1.35,4.33-5.4,1.75-6.3-4.78-6.3-3-7.29a8.29,8.29,0,0,0,3.57-3.76C-187.36,421.36-185.53,417.28-191.69,414.24Z" transform="translate(302.57 -338.74)"/><path class="cls-4" d="M938.26,498.1c-9.27-4.58-22.58,6.47-22.58,6.47l1.67,6.87s3.2-8.51,10.88-9.41c0,0,6.23-1.07,7.45,1.64,0,0,.83,2-.46,3,0,0-3.34,2.05-3.5,4.75.31,2.29,2.89,2.78,3,4.58,0,2.38-3,4.83-5.25,1.72-.53-1,.61-6.3.61-7.94,0,0,0-4.25-3.27-4.58,0,0-3.42-.65-3.34,4.58,0,0,0,10.48,1.36,12,.92.57,6.92,3.6,12.09,1.31.69-.41,3-1.35,4.34-5.41,1.75-6.3-4.79-6.3-3-7.28a8.28,8.28,0,0,0,3.58-3.77C942.6,505.22,944.42,501.14,938.26,498.1Z" transform="translate(302.57 -338.74)"/><path class="cls-4" d="M1130.65,576.1c-9.27-4.58-22.58,6.47-22.58,6.47l1.67,6.87s3.2-8.51,10.88-9.41c0,0,6.23-1.07,7.45,1.64,0,0,.83,2-.46,3,0,0-3.34,2-3.5,4.75.31,2.29,2.89,2.78,3,4.58,0,2.38-3,4.83-5.25,1.72-.53-1,.61-6.3.61-7.94,0,0,0-4.25-3.27-4.58,0,0-3.42-.65-3.34,4.58,0,0,0,10.48,1.36,12,.92.57,6.92,3.6,12.09,1.31.69-.41,3-1.35,4.34-5.41,1.75-6.3-4.79-6.3-3-7.28a8.28,8.28,0,0,0,3.58-3.77C1135,583.22,1136.81,579.14,1130.65,576.1Z" transform="translate(302.57 -338.74)"/><path class="cls-4" d="M126.2,567.85c-9.28-4.58-22.58,6.47-22.58,6.47l1.67,6.87s3.19-8.51,10.87-9.41c0,0,6.24-1.06,7.45,1.64,0,0,.84,2.05-.45,3,0,0-3.35,2-3.5,4.74.3,2.3,2.89,2.79,3,4.59,0,2.37-3,4.83-5.24,1.72-.53-1,.61-6.31.61-7.94,0,0,0-4.26-3.27-4.59,0,0-3.42-.65-3.35,4.59,0,0,0,10.47,1.37,12,.91.57,6.92,3.6,12.09,1.31a8.21,8.21,0,0,0,4.33-5.4c1.75-6.31-4.79-6.31-3-7.29a8.29,8.29,0,0,0,3.57-3.76C130.53,575,132.36,570.9,126.2,567.85Z" transform="translate(302.57 -338.74)"/><path class="cls-4" d="M1007.14,558.91c-9.27-4.58-22.58,6.47-22.58,6.47l1.68,6.88s3.19-8.52,10.87-9.42c0,0,6.23-1.06,7.45,1.64,0,0,.84,2-.46,3,0,0-3.34,2-3.49,4.75.3,2.29,2.88,2.78,3,4.58,0,2.37-3,4.83-5.25,1.72-.53-1,.61-6.3.61-7.94,0,0,0-4.26-3.27-4.58,0,0-3.42-.66-3.34,4.58,0,0,0,10.48,1.37,12,.91.57,6.92,3.6,12.09,1.31a8.21,8.21,0,0,0,4.33-5.4c1.75-6.3-4.79-6.3-3-7.29a8.26,8.26,0,0,0,3.58-3.76C1011.48,566,1013.3,562,1007.14,558.91Z" transform="translate(302.57 -338.74)"/><path class="cls-4" d="M-240.79,554.17c-9.28-4.58-22.58,6.47-22.58,6.47l1.67,6.87s3.19-8.51,10.87-9.41c0,0,6.24-1.06,7.45,1.64,0,0,.84,2-.45,3,0,0-3.35,2-3.5,4.74.3,2.3,2.89,2.79,3,4.59,0,2.37-3,4.83-5.25,1.72-.53-1,.61-6.31.61-7.94,0,0,0-4.26-3.27-4.59,0,0-3.42-.65-3.35,4.59,0,0,0,10.47,1.37,12,.91.57,6.92,3.6,12.09,1.31a8.21,8.21,0,0,0,4.33-5.4c1.75-6.31-4.79-6.31-3-7.29a8.29,8.29,0,0,0,3.57-3.76C-236.46,561.29-234.63,557.22-240.79,554.17Z" transform="translate(302.57 -338.74)"/><path class="cls-4" d="M696,493.85c-9.27-4.58-22.58,6.47-22.58,6.47l1.67,6.87s3.2-8.51,10.88-9.41c0,0,6.23-1.06,7.45,1.64,0,0,.84,2.05-.46,3,0,0-3.34,2-3.49,4.74.3,2.3,2.89,2.79,3,4.59,0,2.37-3,4.83-5.24,1.72-.54-1,.6-6.31.6-7.94,0,0,0-4.26-3.27-4.59,0,0-3.42-.65-3.34,4.59,0,0,0,10.47,1.37,12,.91.57,6.92,3.6,12.09,1.31a8.21,8.21,0,0,0,4.33-5.4c1.75-6.31-4.79-6.31-3-7.29a8.26,8.26,0,0,0,3.58-3.76C700.35,501,702.17,496.9,696,493.85Z" transform="translate(302.57 -338.74)"/><path class="cls-4" d="M821.44,510.1c-19.39-8.75-47.21,12.35-47.21,12.35l3.49,13.12s6.68-16.25,22.74-18c0,0,13-2,15.58,3.13,0,0,1.74,3.9-1,5.78,0,0-7,3.9-7.31,9.06.63,4.38,6,5.31,6.2,8.75,0,4.53-6.2,9.22-11,3.28-1.11-1.87,1.27-12,1.27-15.15,0,0,0-8.13-6.83-8.75,0,0-7.16-1.25-7,8.75,0,0,0,20,2.86,23,1.91,1.09,14.47,6.87,25.28,2.5,1.43-.79,6.36-2.58,9.06-10.32,3.66-12-10-12-6.2-13.9a16.51,16.51,0,0,0,7.47-7.19C830.5,523.7,834.32,515.91,821.44,510.1Z" transform="translate(302.57 -338.74)"/><path class="cls-4" d="M132,492.35c-19.39-8.75-47.21,12.34-47.21,12.34l3.5,13.13s6.67-16.25,22.73-18c0,0,13-2,15.58,3.13,0,0,1.75,3.9-1,5.78,0,0-7,3.9-7.32,9.06.64,4.38,6,5.31,6.2,8.75,0,4.53-6.2,9.22-11,3.28-1.11-1.87,1.28-12,1.28-15.15,0,0,0-8.13-6.84-8.76,0,0-7.15-1.25-7,8.76,0,0,0,20,2.86,23,1.9,1.09,14.46,6.87,25.27,2.5,1.43-.79,6.36-2.58,9.06-10.32,3.66-12-10-12-6.2-13.9a16.53,16.53,0,0,0,7.48-7.19C141.11,505.94,144.92,498.16,132,492.35Z" transform="translate(302.57 -338.74)"/><path class="cls-4" d="M277.92,482.64C258.52,473.88,230.7,495,230.7,495l3.5,13.13s6.68-16.26,22.73-18c0,0,13-2,15.58,3.12,0,0,1.75,3.91-.95,5.78,0,0-7,3.91-7.32,9.07.64,4.37,6.05,5.31,6.2,8.75,0,4.53-6.2,9.22-11,3.28-1.12-1.88,1.27-12,1.27-15.16,0,0,0-8.13-6.84-8.75,0,0-7.15-1.25-7,8.75,0,0,0,20,2.86,23,1.91,1.09,14.46,6.88,25.27,2.5,1.43-.78,6.36-2.57,9.07-10.31,3.65-12-10-12-6.2-13.91a16.46,16.46,0,0,0,7.47-7.19C287,496.23,290.79,488.44,277.92,482.64Z" transform="translate(302.57 -338.74)"/><path class="cls-4" d="M844.13,565.59c-9.27-4.59-22.58,6.46-22.58,6.46l1.67,6.88s3.2-8.51,10.88-9.41c0,0,6.23-1.07,7.45,1.63,0,0,.83,2.05-.46,3,0,0-3.34,2.05-3.5,4.75.31,2.29,2.89,2.78,3,4.58,0,2.38-3,4.83-5.25,1.72-.53-1,.61-6.3.61-7.94,0,0,0-4.26-3.27-4.58,0,0-3.42-.66-3.34,4.58,0,0,0,10.48,1.36,12,.92.58,6.92,3.6,12.09,1.31.69-.41,3-1.35,4.34-5.4,1.75-6.3-4.79-6.3-3-7.28a8.38,8.38,0,0,0,3.58-3.77C848.47,572.71,850.29,568.63,844.13,565.59Z" transform="translate(302.57 -338.74)"/><path class="cls-4" d="M896,526.85c-9.27-4.58-22.58,6.47-22.58,6.47l1.68,6.87s3.19-8.51,10.87-9.41c0,0,6.23-1.06,7.45,1.64,0,0,.84,2.05-.46,3,0,0-3.34,2-3.49,4.74.3,2.3,2.89,2.79,3,4.59,0,2.37-3,4.83-5.24,1.72-.54-1,.6-6.31.6-7.94,0,0,0-4.26-3.27-4.59,0,0-3.42-.65-3.34,4.59,0,0,0,10.47,1.37,12,.91.57,6.92,3.6,12.09,1.31a8.21,8.21,0,0,0,4.33-5.4c1.75-6.31-4.79-6.31-3-7.29a8.26,8.26,0,0,0,3.58-3.76C900.35,534,902.17,529.9,896,526.85Z" transform="translate(302.57 -338.74)"/><path class="cls-4" d="M992.94,425c-19.39-8.75-47.21,12.34-47.21,12.34l3.5,13.13s6.67-16.25,22.73-18c0,0,13-2,15.58,3.12,0,0,1.75,3.91-1,5.78,0,0-7,3.91-7.31,9.07.64,4.37,6,5.31,6.2,8.75,0,4.53-6.2,9.22-11,3.28-1.11-1.88,1.27-12,1.27-15.16,0,0,0-8.12-6.83-8.75,0,0-7.16-1.25-7,8.75,0,0,0,20,2.86,23,1.91,1.1,14.47,6.88,25.28,2.5,1.43-.78,6.36-2.57,9.06-10.31,3.66-12-10-12-6.2-13.91a16.41,16.41,0,0,0,7.47-7.19C1002,438.55,1005.82,430.77,992.94,425Z" transform="translate(302.57 -338.74)"/><path class="cls-4" d="M764.87,462c-19.39-8.75-47.21,12.34-47.21,12.34l3.49,13.13s6.68-16.25,22.74-18c0,0,13-2,15.58,3.12,0,0,1.74,3.91-1,5.78,0,0-7,3.91-7.31,9.07.63,4.37,6,5.31,6.2,8.75,0,4.53-6.2,9.22-11,3.28-1.11-1.88,1.27-12,1.27-15.16,0,0,0-8.12-6.83-8.75,0,0-7.16-1.25-7,8.75,0,0,0,20,2.86,23,1.91,1.1,14.47,6.88,25.28,2.5,1.43-.78,6.36-2.57,9.06-10.31,3.66-12-10-12-6.2-13.91a16.41,16.41,0,0,0,7.47-7.19C773.93,475.62,777.75,467.84,764.87,462Z" transform="translate(302.57 -338.74)"/><path class="cls-4" d="M1097.86,461.79c-9.28-4.59-22.58,6.46-22.58,6.46l1.67,6.88s3.19-8.51,10.87-9.41c0,0,6.23-1.07,7.45,1.63,0,0,.84,2-.45,3,0,0-3.35,2.05-3.5,4.75.3,2.29,2.89,2.78,3,4.58,0,2.38-3,4.83-5.24,1.72-.54-1,.61-6.3.61-7.94,0,0,0-4.26-3.27-4.58,0,0-3.43-.66-3.35,4.58,0,0,0,10.48,1.37,12,.91.58,6.92,3.6,12.09,1.31a8.21,8.21,0,0,0,4.33-5.4c1.75-6.3-4.79-6.3-3-7.28a8.35,8.35,0,0,0,3.57-3.77C1102.19,468.91,1104,464.83,1097.86,461.79Z" transform="translate(302.57 -338.74)"/><path class="cls-4" d="M-165.76,561.92c-9.28-4.58-22.58,6.47-22.58,6.47l1.67,6.87s3.19-8.51,10.87-9.41c0,0,6.23-1.06,7.45,1.64,0,0,.84,2-.45,3,0,0-3.35,2-3.5,4.74.3,2.3,2.89,2.79,3,4.59,0,2.37-3,4.83-5.24,1.72-.54-1,.61-6.31.61-7.94,0,0,0-4.26-3.27-4.59,0,0-3.43-.65-3.35,4.59,0,0,0,10.47,1.37,12,.91.57,6.92,3.6,12.09,1.31a8.21,8.21,0,0,0,4.33-5.4c1.75-6.31-4.79-6.31-3-7.29a8.29,8.29,0,0,0,3.57-3.76C-161.43,569-159.61,565-165.76,561.92Z" transform="translate(302.57 -338.74)"/><path class="cls-4" d="M417.46,346.47c-9.28-4.59-22.58,6.46-22.58,6.46l1.67,6.88s3.19-8.52,10.87-9.42c0,0,6.24-1.06,7.45,1.64,0,0,.84,2.05-.45,3,0,0-3.35,2.05-3.5,4.75.31,2.29,2.89,2.78,3,4.58,0,2.37-3,4.83-5.25,1.72-.53-1,.61-6.3.61-7.94,0,0,0-4.26-3.27-4.58,0,0-3.42-.66-3.35,4.58,0,0,0,10.48,1.37,12,.91.57,6.92,3.6,12.09,1.31.69-.41,3-1.35,4.33-5.4,1.75-6.3-4.79-6.3-3-7.29a8.29,8.29,0,0,0,3.57-3.76C421.79,353.59,423.62,349.51,417.46,346.47Z" transform="translate(302.57 -338.74)"/><path class="cls-4" d="M656.34,346.47c-9.28-4.59-22.58,6.46-22.58,6.46l1.67,6.88s3.2-8.52,10.87-9.42c0,0,6.24-1.06,7.46,1.64,0,0,.83,2.05-.46,3,0,0-3.35,2.05-3.5,4.75.31,2.29,2.89,2.78,3,4.58,0,2.37-3,4.83-5.25,1.72-.53-1,.61-6.3.61-7.94,0,0,0-4.26-3.27-4.58,0,0-3.42-.66-3.35,4.58,0,0,0,10.48,1.37,12,.92.57,6.92,3.6,12.09,1.31.69-.41,3-1.35,4.33-5.4,1.75-6.3-4.78-6.3-3-7.29a8.29,8.29,0,0,0,3.57-3.76C660.67,353.59,662.5,349.51,656.34,346.47Z" transform="translate(302.57 -338.74)"/><path class="cls-4" d="M618.45,578.76c-9.28-4.59-22.58,6.46-22.58,6.46l1.67,6.88s3.19-8.52,10.87-9.42c0,0,6.24-1.06,7.45,1.64,0,0,.84,2-.45,3,0,0-3.35,2-3.5,4.75.3,2.29,2.89,2.78,3,4.58,0,2.37-3,4.83-5.25,1.72-.53-1,.61-6.3.61-7.94,0,0,0-4.26-3.27-4.58,0,0-3.42-.66-3.35,4.58,0,0,0,10.48,1.37,12,.91.58,6.92,3.6,12.09,1.31a8.21,8.21,0,0,0,4.33-5.4c1.75-6.3-4.79-6.3-3-7.29a8.29,8.29,0,0,0,3.57-3.76C622.78,585.88,624.61,581.8,618.45,578.76Z" transform="translate(302.57 -338.74)"/></svg>