<?xml version="1.0" encoding="utf-8"?>
<!-- Generator: Adobe Illustrator 25.4.1, SVG Export Plug-In . SVG Version: 6.00 Build 0)  -->
<svg version="1.1" id="Layer_1" xmlns="http://www.w3.org/2000/svg" xmlns:xlink="http://www.w3.org/1999/xlink" x="0px" y="0px"
	 viewBox="0 0 24 24" style="enable-background:new 0 0 24 24;" xml:space="preserve">
<style type="text/css">
	.st0{fill:#FF17D2;}
	.st1{fill:#5E1DE8;}
</style>
<g>
	<path class="st0" d="M12,22.8C6.1,22.8,1.2,17.9,1.2,12C1.2,6.1,6.1,1.3,12,1.3c5.9,0,10.7,4.8,10.7,10.7
		C22.7,17.9,17.9,22.8,12,22.8z M12,5.9c1.3,0,2.3,0.5,2.8,1.5c0.9,1.5,0.6,3.8-0.8,6.6c-0.3,0.5-0.3,1-0.1,1.4
		c0.4,0.9,1.9,1.2,3.4,1.6c1,0.2,1.4,0.6,1.6,1l0.2,0.3l0.2-0.3c1.3-1.6,2.1-3.7,2.1-5.9c0-5.2-4.2-9.4-9.4-9.4S2.6,6.9,2.6,12
		c0,2.2,0.7,4.3,2.1,5.8l0.2,0.3l0.2-0.3c0.2-0.4,0.6-0.8,1.6-1l0.2,0c1.5-0.3,2.9-0.6,3.3-1.5c0.2-0.4,0.1-0.9-0.2-1.5
		c-1.4-2.7-1.7-5-0.8-6.5C9.7,6.4,10.7,5.9,12,5.9z"/>
	<path class="st1" d="M12,1.6c5.8,0,10.5,4.7,10.5,10.5S17.7,22.5,12,22.5S1.5,17.8,1.5,12S6.2,1.6,12,1.6 M4.9,18.5L5.3,18
		c0.2-0.3,0.5-0.7,1.4-0.9l0.2,0c1.5-0.3,3-0.6,3.4-1.6c0.2-0.5,0.2-1.1-0.2-1.7c-1.4-2.6-1.7-4.8-0.8-6.2c0.5-0.9,1.5-1.4,2.7-1.4
		c1.2,0,2.1,0.5,2.6,1.3c0.9,1.4,0.6,3.7-0.8,6.3c-0.3,0.6-0.4,1.2-0.2,1.7c0.5,1,2.1,1.4,3.6,1.7c0.9,0.2,1.2,0.4,1.4,0.8l0.3,0.7
		l0.5-0.6c1.4-1.7,2.1-3.8,2.1-6.1c0-5.3-4.3-9.6-9.6-9.6c-5.3,0-9.6,4.3-9.6,9.6c0,2.3,0.8,4.4,2.1,6L4.9,18.5 M12,1.1
		C5.9,1.1,1,6,1,12s4.9,11,11,11s11-4.9,11-11S18,1.1,12,1.1L12,1.1z M4.8,17.7c-1.3-1.5-2-3.5-2-5.7c0-5,4.1-9.1,9.1-9.1
		S21.1,7,21.1,12c0,2.2-0.7,4.2-2,5.8c-0.3-0.5-0.7-0.9-1.7-1.1c-2.1-0.5-4-0.9-3.1-2.6C17.1,8.6,15,5.6,12,5.6
		c-3.1,0-5.1,3-2.3,8.3c1,1.8-1,2.2-3.1,2.6C5.6,16.8,5.1,17.2,4.8,17.7L4.8,17.7z"/>
</g>
</svg>
