<?xml version="1.0" encoding="utf-8"?>
<!-- Generator: Adobe Illustrator 25.4.1, SVG Export Plug-In . SVG Version: 6.00 Build 0)  -->
<svg version="1.1" id="Layer_1" xmlns="http://www.w3.org/2000/svg" xmlns:xlink="http://www.w3.org/1999/xlink" x="0px" y="0px"
	 viewBox="0 0 100 100" style="enable-background:new 0 0 100 100;" xml:space="preserve">
<style type="text/css">
	.st0{fill:none;stroke:#000000;stroke-width:4.5842;}
	.st1{fill:#020202;}
</style>
<path class="st0" d="M15.7,11.7h68.6c7.7,0,13.7,4.5,13.7,10.2v50.9c0,5.7-6,10.2-13.7,10.2H15.7C8,83,2,78.5,2,72.8V21.9
	C2,16.2,8,11.7,15.7,11.7z"/>
<path class="st1" d="M4.6,25c-1.8-0.7-3.8,0.1-4.5,1.9c-0.7,1.8,0.1,3.8,1.9,4.5L4.6,25z M23.9,39.1l1.9-2.9L23.9,39.1z M76,39.1
	l2,2.8L76,39.1z M97.8,31.4c1.8-0.7,2.6-2.7,2-4.4c-0.7-1.8-2.7-2.6-4.4-2L97.8,31.4z M3.3,28.2C2,31.3,2,31.3,2,31.3l0,0
	c0,0,0,0,0,0c0,0,0,0,0,0c0,0,0,0,0,0c0,0,0,0,0.1,0c0.1,0,0.2,0.1,0.3,0.1c0.3,0.1,0.7,0.3,1.3,0.5c1.1,0.5,2.6,1.2,4.5,2.1
	C12,36,17,38.7,22,42l3.8-5.8C20.4,32.8,15.2,30,11.2,28c-2-1-3.6-1.7-4.8-2.2c-0.6-0.3-1-0.5-1.3-0.6C5,25.1,4.9,25.1,4.8,25
	c0,0-0.1,0-0.1,0c0,0,0,0,0,0c0,0,0,0,0,0c0,0,0,0,0,0c0,0,0,0,0,0C4.6,25,4.6,25,3.3,28.2z M22,42c2.6,1.7,5.2,3.6,7.8,5.4
	c2.6,1.9,5.2,3.7,7.6,5.4c2.4,1.6,4.8,3.2,7,4.3c2.1,1.1,4.5,2,6.8,2v-6.9c-0.6,0-1.8-0.3-3.7-1.2c-1.8-0.9-3.9-2.2-6.3-3.8
	c-2.3-1.6-4.8-3.4-7.5-5.3c-2.6-1.9-5.4-3.8-8.1-5.6L22,42z M51.3,59c2.3,0,4.6-0.9,6.6-2c2-1.1,4.2-2.7,6.3-4.3
	c4.4-3.4,8.8-7.3,13.8-10.7L74,36.3c-5.1,3.5-10.1,7.9-14,10.9c-2.1,1.6-3.9,2.9-5.4,3.7c-1.6,0.9-2.7,1.2-3.2,1.2V59z M78,41.9
	c4.6-3.2,9.6-5.9,13.4-7.7c1.9-0.9,3.5-1.6,4.7-2.1c0.6-0.2,1-0.4,1.3-0.5c0.1-0.1,0.3-0.1,0.3-0.1c0,0,0.1,0,0.1,0c0,0,0,0,0,0
	c0,0,0,0,0,0l0,0c0,0,0,0,0,0c0,0,0,0-1.2-3.2c-1.2-3.2-1.2-3.2-1.2-3.2c0,0,0,0,0,0c0,0,0,0,0,0c0,0,0,0,0,0c0,0,0,0,0,0
	c0,0-0.1,0-0.1,0c-0.1,0-0.2,0.1-0.4,0.2c-0.3,0.1-0.8,0.3-1.4,0.6c-1.2,0.5-2.9,1.3-4.9,2.3c-4,1.9-9.3,4.8-14.4,8.3L78,41.9z"/>
</svg>
