<?xml version="1.0" encoding="utf-8"?>
<!-- Generator: Adobe Illustrator 25.4.1, SVG Export Plug-In . SVG Version: 6.00 Build 0)  -->
<svg version="1.1" id="Layer_1" xmlns="http://www.w3.org/2000/svg" xmlns:xlink="http://www.w3.org/1999/xlink" x="0px" y="0px"
	 viewBox="0 0 67 67" style="enable-background:new 0 0 67 67;" xml:space="preserve">
<style type="text/css">
	.st0{fill-rule:evenodd;clip-rule:evenodd;fill:#FFFFFF;}
</style>
<path class="st0" d="M11.2,50.5c0-3.1,2.5-5.6,5.6-5.6h33.5c3.1,0,5.6,2.5,5.6,5.6s-2.5,5.6-5.6,5.6H16.8
	C13.7,56,11.2,53.6,11.2,50.5z M11.2,33.7c0-3.1,2.5-5.6,5.6-5.6h33.5c3.1,0,5.6,2.5,5.6,5.6s-2.5,5.6-5.6,5.6H16.8
	C13.7,39.3,11.2,36.8,11.2,33.7z M11.2,17c0-3.1,2.5-5.6,5.6-5.6h33.5c3.1,0,5.6,2.5,5.6,5.6s-2.5,5.6-5.6,5.6H16.8
	C13.7,22.5,11.2,20.1,11.2,17z"/>
</svg>
