<?xml version="1.0" encoding="utf-8"?>
<!-- Generator: Adobe Illustrator 25.4.1, SVG Export Plug-In . SVG Version: 6.00 Build 0)  -->
<svg version="1.1" id="Layer_1" xmlns="http://www.w3.org/2000/svg" xmlns:xlink="http://www.w3.org/1999/xlink" x="0px" y="0px"
	 viewBox="0 0 24 24" style="enable-background:new 0 0 24 24;" xml:space="preserve">
<style type="text/css">
	.st0{fill:#737373;}
</style>
<path class="st0" d="M11.9,15l3.1-3.1l0,0.1c0,1.7-1.3,3-3,3C12,15,11.9,15,11.9,15z M19.9,7l-3.3,3.3c0.2,0.6,0.3,1.1,0.3,1.8
	c0,2.8-2.2,5-5,5c-0.6,0-1.2-0.1-1.8-0.3L7.8,19c1.3,0.6,2.7,1,4.2,1c7.7,0,12-8.4,12-8.4S22.6,9.1,19.9,7z M21.4,3.4L2.7,22
	l-1.4-1.4l3.5-3.4c-3-2.4-4.8-5.6-4.8-5.6S4.4,4,12,4c1.8,0,3.5,0.4,4.9,1.1L20,2C20,2,21.4,3.4,21.4,3.4z M7.6,14.3l1.5-1.5
	C9.1,12.6,9,12.3,9,12c0-1.7,1.3-3,3-3c0.3,0,0.6,0.1,0.8,0.1l1.5-1.5C13.6,7.2,12.9,7,12,7c-2.8,0-5,2.2-5,5
	C7,12.9,7.2,13.6,7.6,14.3z"/>
</svg>
