<?xml version="1.0" encoding="utf-8"?>
<!-- Generator: Adobe Illustrator 25.4.1, SVG Export Plug-In . SVG Version: 6.00 Build 0)  -->
<svg version="1.1" id="Layer_1" xmlns="http://www.w3.org/2000/svg" xmlns:xlink="http://www.w3.org/1999/xlink" x="0px" y="0px"
	 viewBox="0 0 24 24" style="enable-background:new 0 0 24 24;" xml:space="preserve">
<style type="text/css">
	.st0{fill:#737373;}
</style>
<path class="st0" d="M6.1,18.4l1.6-1.6l0,0.1C7.7,17.7,7,18.4,6.1,18.4C6.2,18.4,6.1,18.4,6.1,18.4z M10.3,14.3l-1.7,1.7
	c0.1,0.3,0.2,0.6,0.2,0.9c0,1.4-1.2,2.6-2.6,2.6c-0.3,0-0.6-0.1-0.9-0.2L4,20.5C4.7,20.8,5.4,21,6.2,21c4,0,6.2-4.3,6.2-4.3
	S11.6,15.4,10.3,14.3z M11,12.4L1.4,22l-0.7-0.7l1.8-1.8C0.9,18.2,0,16.6,0,16.6s2.3-3.9,6.2-3.9c0.9,0,1.8,0.2,2.5,0.6l1.6-1.6
	C10.3,11.7,11,12.4,11,12.4z M3.9,18.1l0.8-0.8c0-0.1-0.1-0.3-0.1-0.4c0-0.9,0.7-1.5,1.5-1.5c0.1,0,0.3,0,0.4,0.1l0.8-0.8
	c-0.4-0.2-0.8-0.3-1.2-0.3c-1.4,0-2.6,1.2-2.6,2.6C3.6,17.3,3.7,17.7,3.9,18.1z"/>
</svg>
