<?xml version="1.0" encoding="utf-8"?>
<!-- Generator: Adobe Illustrator 25.4.1, SVG Export Plug-In . SVG Version: 6.00 Build 0)  -->
<svg version="1.1" id="Layer_1" xmlns="http://www.w3.org/2000/svg" xmlns:xlink="http://www.w3.org/1999/xlink" x="0px" y="0px"
	 viewBox="0 0 24 24" style="enable-background:new 0 0 24 24;" xml:space="preserve">
<style type="text/css">
	.st0{fill-rule:evenodd;clip-rule:evenodd;fill:#FFFFFF;}
</style>
<path class="st0" d="M11.8,21h6.3c0.5,0,0.8-0.4,0.8-0.8v-0.8c0-0.2,0.1-0.4,0.2-0.6L20,18v3.2c0,0.5-0.4,0.8-0.8,0.8h-7.3
	c-0.5,0-0.8,0.4-0.8,0.8v0c0,0.6-0.5,1-1.1,0.8l-8.3-2.5C1.2,21.1,1,20.7,1,20.4V3.6c0-0.4,0.2-0.7,0.6-0.8l8.3-2.5
	C10.5,0.2,11,0.6,11,1.1v0C11,1.6,11.4,2,11.8,2h7.3C19.6,2,20,2.4,20,2.8V7l-0.8-0.8C19.1,6.1,19,5.9,19,5.7V3.8
	C19,3.4,18.6,3,18.2,3h-6.3C11.4,3,11,3.4,11,3.8v16.3C11,20.6,11.4,21,11.8,21z M19,12c0.7,0,1.1-0.9,0.6-1.4l-1.9-1.9L18.5,8
	l4.5,4.5L18.5,17l-0.7-0.7l1.9-1.9c0.5-0.5,0.2-1.4-0.6-1.4h-7v-1L19,12z"/>
</svg>
